<?xml version="1.0" encoding="UTF-8"?>
<!DOCTYPE svg PUBLIC "-//W3C//DTD SVG 1.1//EN" "http://www.w3.org/Graphics/SVG/1.1/DTD/svg11.dtd">
<!-- Creator: CorelDRAW 2018 (64-Bit) -->
<svg xmlns="http://www.w3.org/2000/svg" xml:space="preserve" width="8.9475mm" height="7.9086mm" version="1.1" style="shape-rendering:geometricPrecision; text-rendering:geometricPrecision; image-rendering:optimizeQuality; fill-rule:evenodd; clip-rule:evenodd"
viewBox="0 0 137.29 121.35"
 xmlns:xlink="http://www.w3.org/1999/xlink">
 <defs>
  <style type="text/css">
   <![CDATA[
    .str0 {stroke:#A2D9F7;stroke-width:3.07;stroke-miterlimit:22.9256}
    .fil0 {fill:#008DD2}
   ]]>
  </style>
 </defs>
 <g id="Слой_x0020_1">
  <metadata id="CorelCorpID_0Corel-Layer"/>
  <path class="fil0 str0" d="M128.24 16.03c-1.15,0.89 -2.08,3 -4.31,6.67 -0.8,1.31 -3.56,5.41 -3.69,6.57 1.03,-0.74 8.55,-10.44 10.33,-12.85l1.25 -1.99c1.16,-0.89 0.15,-1.04 1.79,-1.47 2.14,2.24 2.26,11.45 2.12,14.39 -0.07,1.43 -0.59,4.7 -0.89,6.17 -0.41,2.01 -1.81,2.71 -4.24,3.93l-21.74 12.5c1.81,0.38 14.7,-1.07 18.17,-1.48l1.99 -0.03c0.65,0.14 0.31,-0 0.78,0.27 -0.19,2.47 -6.22,13.06 -7.67,15.15 -1.17,1.68 -2.46,1.13 -4.62,1.21l-10.39 0.38c-1.68,0.03 -3.78,0.03 -5.34,0.4 1.05,0.61 2.15,0.46 3.77,0.61l8.48 1.32c1.37,0.19 3.17,0.29 4.6,0.49 -0.1,1.7 -3.23,5.1 -4.46,6.49 -0.91,1.02 -1.69,1.96 -2.6,3.04l-12.59 11.51c-0.51,0.39 -0.29,0.22 -0.87,0.61 -3.17,2.13 -4.33,3.66 -8.5,6.03 -4.24,2.41 -2.33,2.94 -8.34,2.57l-9.57 -0.31c-3.04,-0.11 -6.17,-0.83 -9.65,-0.29 0.06,0.05 0.13,0.05 0.18,0.15l0.54 0.41c0.4,0.25 0.48,0.26 0.93,0.44l8.47 3.8c0.89,0.4 2.9,0.95 3.34,1.75 -0.31,1.12 -1.6,1.18 -3.96,2.49 -1.55,0.86 -3.22,1.57 -4.89,2.25 -1.91,0.77 -3.01,1.39 -4.9,2.17l-9.85 3.98c-1.75,0.63 -2.92,1.72 -5.13,1.05 -1.36,-0.42 -7.83,-3.15 -8.73,-3.08 -0.45,-0.95 -4.91,-2.54 -6.47,-2.34 0.5,1 1.19,1.45 1.84,2.06l1.98 1.94c0.95,0.78 3.54,3.07 4.06,4.15 -2.8,0.7 -2,-0.62 -4.23,-1.05 -4.37,-2.21 -7.4,-5.95 -10,-5.11 -4.72,1.53 -2.52,1.03 -4.02,1.8 -1.49,0.77 -18.15,4.7 -19.61,4.87 -0.19,-1.26 0.53,-1.63 0.82,-2.94 4.08,-0.99 20.6,-7.28 22.56,-8.91l6.44 -2.83c3.14,-1.68 16.69,-9.76 18.72,-11.54 0.74,-0.65 1.59,-1.11 2.4,-1.67 8.27,-5.81 15.69,-11.91 22.85,-18.94 7.19,-7.07 9.29,-9.82 15.41,-17.1 1.18,-1.4 6.41,-7.62 6.64,-9.45 -1.33,0.51 -2.61,2.47 -4.05,4.22 -6.6,8.05 -12.02,13.26 -19.47,20.28 -2.79,2.63 -5.89,4.7 -8.73,7.26 -3.47,3.12 -15.3,11.59 -18.83,13.74 -1.88,1.14 -19.26,11.32 -21.25,11.63l-0.22 -1.16c1.16,-1.55 0.8,-1.54 1.5,-3.16 1.24,-2.86 1.72,-5.08 2.63,-7.39l1.47 -3.5c0.89,0.99 -0.33,3.7 0.11,5.98 1.13,-0.83 5.36,-9.27 6.4,-10.93 1.42,-2.25 1.27,-2.9 2.73,-3.43 0.22,2.87 -1.6,5.54 -1.48,8.69 2.02,-1.85 8.17,-14.38 10.32,-17.28 0.11,-0.15 18.13,-17.95 22.41,-23.58 1.82,-2.4 3.14,-3.65 5.12,-6.37l1.82 -2.32c0.86,-0.9 -0.45,-0.23 1.26,-0.89 0.44,3.25 -0.78,9.04 -0.27,11.81 0.52,-0.39 2.96,-8.07 3.35,-9.33l6.59 -19.67c3.93,-7.88 13.78,-17.72 24.28,-19.17 9.62,-1.33 18.88,5.56 18.63,8.18 -0.39,0.94 -3.42,5.41 -3.48,6.14z"/>
 </g>
</svg>
