<?xml version="1.0" encoding="UTF-8"?>
<!DOCTYPE svg PUBLIC "-//W3C//DTD SVG 1.1//EN" "http://www.w3.org/Graphics/SVG/1.1/DTD/svg11.dtd">
<!-- Creator: CorelDRAW 2018 (64-Bit) -->
<svg xmlns="http://www.w3.org/2000/svg" xml:space="preserve" width="55.0064mm" height="31.7425mm" version="1.1" style="shape-rendering:geometricPrecision; text-rendering:geometricPrecision; image-rendering:optimizeQuality; fill-rule:evenodd; clip-rule:evenodd"
viewBox="0 0 297.08 171.44"
 xmlns:xlink="http://www.w3.org/1999/xlink">
 <defs>
  <style type="text/css">
   <![CDATA[
    .str0 {stroke:#A2D9F7;stroke-width:1.08;stroke-miterlimit:22.9256}
    .fil2 {fill:#008DD2}
    .fil1 {fill:#125FA9;fill-rule:nonzero}
    .fil0 {fill:#008DD2;fill-rule:nonzero}
   ]]>
  </style>
 </defs>
 <g id="Слой_x0020_1">
  <metadata id="CorelCorpID_0Corel-Layer"/>
  <g id="_2037530451328">
   <g>
    <path class="fil0" d="M47.77 40.3c-0.03,-0.06 -0.04,-0.11 -0.03,-0.17 0.01,-0.05 0.04,-0.12 0.09,-0.19 0.05,-0.07 0.12,-0.15 0.21,-0.22 0.1,-0.08 0.22,-0.16 0.37,-0.26 0.15,-0.1 0.28,-0.18 0.39,-0.23 0.1,-0.05 0.19,-0.08 0.27,-0.09 0.07,-0 0.13,0 0.17,0.03 0.04,0.03 0.07,0.07 0.09,0.13l2.39 5.97c0.09,0.2 0.17,0.4 0.26,0.58 0.09,0.18 0.18,0.35 0.28,0.51 0.26,0.41 0.55,0.68 0.86,0.83 0.31,0.15 0.64,0.1 0.98,-0.12 0.31,-0.2 0.57,-0.51 0.77,-0.91 0.2,-0.41 0.34,-0.88 0.42,-1.41 0.07,-0.54 0.08,-1.11 0.01,-1.73 -0.07,-0.62 -0.22,-1.24 -0.47,-1.85l-1.73 -4.31c-0.02,-0.06 -0.03,-0.12 -0.02,-0.17 0.01,-0.05 0.03,-0.11 0.08,-0.18 0.04,-0.07 0.11,-0.14 0.21,-0.22 0.1,-0.08 0.23,-0.16 0.38,-0.27 0.16,-0.1 0.28,-0.18 0.39,-0.24 0.1,-0.05 0.19,-0.09 0.27,-0.09 0.07,-0 0.13,0 0.17,0.03 0.04,0.02 0.07,0.07 0.09,0.13l2.4 5.96c0.09,0.22 0.18,0.43 0.28,0.62 0.1,0.19 0.2,0.37 0.3,0.53 0.25,0.39 0.53,0.64 0.83,0.78 0.3,0.13 0.62,0.09 0.97,-0.13 0.31,-0.2 0.56,-0.51 0.76,-0.91 0.2,-0.41 0.34,-0.88 0.41,-1.41 0.07,-0.54 0.08,-1.11 0,-1.73 -0.07,-0.61 -0.23,-1.23 -0.47,-1.85l-1.71 -4.32c-0.02,-0.06 -0.03,-0.12 -0.02,-0.17 0.01,-0.05 0.03,-0.11 0.08,-0.18 0.05,-0.07 0.12,-0.15 0.22,-0.23 0.1,-0.08 0.22,-0.16 0.37,-0.26 0.16,-0.11 0.29,-0.19 0.4,-0.24 0.11,-0.06 0.2,-0.09 0.27,-0.09 0.07,-0 0.13,0 0.16,0.03 0.04,0.03 0.07,0.07 0.09,0.12l3.84 9.7c0.03,0.06 0.04,0.11 0.03,0.17 -0,0.06 -0.03,0.11 -0.07,0.17 -0.04,0.06 -0.11,0.13 -0.19,0.2 -0.08,0.07 -0.19,0.15 -0.31,0.23 -0.14,0.09 -0.25,0.16 -0.35,0.2 -0.09,0.04 -0.17,0.07 -0.23,0.08 -0.06,0.01 -0.12,0 -0.16,-0.03 -0.04,-0.03 -0.07,-0.07 -0.09,-0.13l-0.72 -1.86c0.04,0.28 0.03,0.61 -0.03,0.99 -0.06,0.38 -0.17,0.77 -0.33,1.16 -0.16,0.39 -0.36,0.76 -0.61,1.11 -0.25,0.35 -0.54,0.64 -0.88,0.86 -0.37,0.24 -0.71,0.39 -1.04,0.46 -0.33,0.07 -0.63,0.07 -0.92,-0.01 -0.29,-0.08 -0.56,-0.21 -0.8,-0.4 -0.25,-0.19 -0.47,-0.44 -0.67,-0.73 0.02,0.3 -0.01,0.65 -0.09,1.04 -0.07,0.39 -0.19,0.78 -0.34,1.17 -0.15,0.39 -0.35,0.75 -0.6,1.1 -0.24,0.34 -0.54,0.63 -0.88,0.85 -0.4,0.26 -0.77,0.42 -1.13,0.49 -0.36,0.06 -0.68,0.05 -0.99,-0.05 -0.3,-0.1 -0.58,-0.27 -0.85,-0.5 -0.26,-0.23 -0.49,-0.51 -0.71,-0.84 -0.14,-0.22 -0.28,-0.44 -0.39,-0.68 -0.12,-0.23 -0.22,-0.47 -0.32,-0.74l-2.41 -6.03zm26.41 -3.95c0.03,0.06 0.04,0.11 0.03,0.16 0,0.05 -0.03,0.11 -0.08,0.17 -0.05,0.06 -0.13,0.13 -0.24,0.2 -0.1,0.07 -0.25,0.15 -0.42,0.23 -0.19,0.09 -0.35,0.16 -0.47,0.2 -0.12,0.04 -0.21,0.07 -0.29,0.07 -0.07,0.01 -0.13,-0 -0.18,-0.03 -0.05,-0.02 -0.09,-0.06 -0.12,-0.11l-1.69 -2.17c-0.22,-0.28 -0.44,-0.5 -0.64,-0.66 -0.21,-0.17 -0.42,-0.27 -0.64,-0.32 -0.22,-0.06 -0.45,-0.05 -0.7,0 -0.24,0.06 -0.52,0.15 -0.81,0.3l-0.71 0.35 1.21 4.53c0,0.04 -0.01,0.09 -0.03,0.14 -0.02,0.05 -0.06,0.11 -0.13,0.17 -0.07,0.06 -0.15,0.12 -0.25,0.19 -0.1,0.07 -0.23,0.14 -0.37,0.21 -0.15,0.07 -0.28,0.13 -0.39,0.16 -0.11,0.04 -0.2,0.06 -0.27,0.07 -0.07,0.01 -0.14,0.01 -0.18,-0.02 -0.04,-0.02 -0.07,-0.05 -0.08,-0.09l-2.73 -10.23c-0.02,-0.03 -0.01,-0.08 0.02,-0.12 0.02,-0.05 0.07,-0.11 0.14,-0.16 0.06,-0.06 0.15,-0.12 0.25,-0.18 0.1,-0.06 0.23,-0.13 0.37,-0.2 0.14,-0.07 0.27,-0.13 0.38,-0.17 0.11,-0.04 0.2,-0.06 0.27,-0.07 0.07,-0.01 0.13,-0.01 0.17,0.01 0.04,0.01 0.08,0.04 0.08,0.08l1.13 4.23 0.7 -0.34c0.25,-0.12 0.46,-0.27 0.66,-0.44 0.2,-0.17 0.36,-0.38 0.49,-0.62 0.14,-0.24 0.25,-0.51 0.33,-0.82 0.08,-0.31 0.14,-0.66 0.17,-1.06l0.2 -2.65c0.01,-0.07 0.02,-0.14 0.05,-0.2 0.03,-0.07 0.08,-0.13 0.15,-0.2 0.07,-0.07 0.17,-0.14 0.28,-0.21 0.12,-0.07 0.27,-0.15 0.45,-0.24 0.16,-0.08 0.29,-0.14 0.4,-0.18 0.1,-0.04 0.19,-0.06 0.25,-0.07 0.06,-0.01 0.11,-0.01 0.14,0.01 0.03,0.02 0.05,0.04 0.07,0.08 0.03,0.05 0.04,0.12 0.05,0.21 0,0.08 -0,0.2 -0.01,0.34l-0.29 2.8c-0.04,0.39 -0.1,0.73 -0.19,1.05 -0.09,0.32 -0.19,0.6 -0.31,0.85 -0.12,0.25 -0.25,0.47 -0.4,0.66 -0.14,0.19 -0.28,0.35 -0.42,0.49l0.01 0.02c0.23,-0.04 0.45,-0.04 0.67,-0.01 0.22,0.03 0.44,0.09 0.66,0.19 0.22,0.1 0.44,0.23 0.66,0.4 0.22,0.17 0.43,0.38 0.64,0.64l1.73 2.09c0.05,0.06 0.09,0.12 0.12,0.16 0.03,0.04 0.06,0.09 0.08,0.13zm8.96 -11.37c0.21,0.52 0.37,1.07 0.49,1.65 0.12,0.58 0.18,1.16 0.19,1.74 0,0.58 -0.06,1.16 -0.19,1.72 -0.13,0.57 -0.34,1.1 -0.62,1.6 -0.28,0.5 -0.65,0.95 -1.1,1.36 -0.45,0.41 -1,0.74 -1.66,1.01 -0.67,0.27 -1.28,0.43 -1.83,0.46 -0.55,0.03 -1.04,-0.05 -1.47,-0.23 -0.43,-0.18 -0.81,-0.47 -1.14,-0.86 -0.33,-0.39 -0.61,-0.87 -0.84,-1.44 -0.21,-0.52 -0.38,-1.07 -0.5,-1.65 -0.12,-0.58 -0.19,-1.16 -0.18,-1.73 0,-0.58 0.07,-1.16 0.19,-1.72 0.13,-0.57 0.33,-1.1 0.62,-1.6 0.28,-0.5 0.65,-0.95 1.1,-1.36 0.45,-0.41 1.01,-0.74 1.66,-1.01 0.68,-0.27 1.28,-0.42 1.83,-0.45 0.55,-0.03 1.04,0.05 1.48,0.23 0.44,0.18 0.82,0.47 1.15,0.86 0.33,0.39 0.6,0.87 0.83,1.43zm-1.79 0.84c-0.14,-0.35 -0.31,-0.65 -0.49,-0.9 -0.19,-0.25 -0.4,-0.44 -0.65,-0.56 -0.25,-0.12 -0.53,-0.19 -0.85,-0.18 -0.32,0.01 -0.67,0.09 -1.07,0.25 -0.42,0.17 -0.78,0.4 -1.06,0.69 -0.28,0.29 -0.51,0.62 -0.68,0.98 -0.17,0.37 -0.28,0.76 -0.34,1.19 -0.06,0.43 -0.08,0.86 -0.06,1.3 0.03,0.44 0.09,0.88 0.19,1.32 0.1,0.43 0.23,0.85 0.39,1.24 0.14,0.35 0.31,0.65 0.5,0.9 0.19,0.25 0.41,0.44 0.67,0.57 0.25,0.13 0.54,0.19 0.85,0.18 0.32,-0.01 0.67,-0.09 1.07,-0.25 0.43,-0.17 0.78,-0.4 1.06,-0.69 0.28,-0.29 0.5,-0.62 0.67,-0.99 0.16,-0.37 0.28,-0.76 0.34,-1.19 0.06,-0.42 0.08,-0.86 0.05,-1.3 -0.03,-0.44 -0.09,-0.89 -0.19,-1.32 -0.1,-0.43 -0.23,-0.85 -0.39,-1.24zm13.72 2.47c0.01,0.05 0,0.11 -0.03,0.16 -0.02,0.06 -0.07,0.11 -0.14,0.16 -0.07,0.05 -0.15,0.1 -0.26,0.16 -0.11,0.06 -0.25,0.11 -0.42,0.16 -0.17,0.06 -0.32,0.09 -0.44,0.11 -0.12,0.02 -0.21,0.02 -0.28,0.02 -0.07,-0.01 -0.12,-0.03 -0.16,-0.06 -0.04,-0.03 -0.05,-0.08 -0.06,-0.14l-1.02 -9.04 -0.24 0.08c-0.69,0.22 -1.25,0.49 -1.68,0.81 -0.44,0.33 -0.78,0.72 -1.01,1.19 -0.24,0.46 -0.39,1.01 -0.45,1.64 -0.06,0.63 -0.06,1.35 0.01,2.17 0.06,0.75 0.09,1.4 0.09,1.94 -0.01,0.55 -0.04,1.02 -0.11,1.42 -0.07,0.4 -0.17,0.73 -0.32,1 -0.15,0.27 -0.33,0.5 -0.55,0.69 -0.22,0.19 -0.49,0.35 -0.79,0.48 -0.3,0.13 -0.65,0.26 -1.03,0.38 -0.15,0.05 -0.26,0.05 -0.34,0.02 -0.07,-0.04 -0.13,-0.12 -0.17,-0.25 -0.01,-0.04 -0.03,-0.09 -0.04,-0.17 -0.02,-0.08 -0.03,-0.16 -0.05,-0.27 -0.01,-0.1 -0.02,-0.21 -0.03,-0.32 -0,-0.11 0,-0.22 0.02,-0.32 0.02,-0.1 0.05,-0.19 0.09,-0.26 0.04,-0.07 0.11,-0.12 0.19,-0.14 0.32,-0.1 0.57,-0.22 0.77,-0.35 0.19,-0.13 0.34,-0.34 0.43,-0.62 0.09,-0.28 0.14,-0.66 0.14,-1.14 0,-0.48 -0.03,-1.13 -0.09,-1.93 -0.07,-0.89 -0.07,-1.72 0.01,-2.49 0.08,-0.77 0.3,-1.48 0.64,-2.13 0.35,-0.64 0.85,-1.22 1.52,-1.72 0.67,-0.5 1.54,-0.93 2.62,-1.27 0.22,-0.07 0.46,-0.15 0.71,-0.22 0.25,-0.08 0.49,-0.14 0.72,-0.2 0.18,-0.04 0.32,-0.02 0.43,0.05 0.1,0.07 0.17,0.23 0.2,0.45l1.1 9.96zm11.68 -2.93c0,0.13 -0.06,0.24 -0.18,0.32 -0.12,0.09 -0.34,0.17 -0.65,0.24 -0.15,0.04 -0.27,0.06 -0.37,0.07 -0.1,0.01 -0.18,0.01 -0.24,-0 -0.07,-0.01 -0.11,-0.04 -0.14,-0.07 -0.03,-0.04 -0.05,-0.09 -0.04,-0.16l-0.09 -1.96c-0.04,0.26 -0.15,0.55 -0.33,0.89 -0.18,0.34 -0.41,0.67 -0.7,0.99 -0.29,0.32 -0.62,0.61 -1,0.86 -0.38,0.26 -0.79,0.44 -1.22,0.54 -0.59,0.14 -1.1,0.16 -1.53,0.05 -0.44,-0.11 -0.81,-0.31 -1.12,-0.59 -0.31,-0.28 -0.56,-0.62 -0.75,-1.03 -0.19,-0.4 -0.34,-0.83 -0.45,-1.28 -0.1,-0.41 -0.18,-0.89 -0.23,-1.43 -0.05,-0.54 -0.06,-1.11 -0.02,-1.69 0.04,-0.59 0.14,-1.17 0.28,-1.75 0.15,-0.58 0.37,-1.13 0.65,-1.63 0.29,-0.5 0.66,-0.94 1.11,-1.31 0.46,-0.37 1.01,-0.64 1.66,-0.8 0.66,-0.16 1.26,-0.17 1.79,-0.02 0.53,0.15 1.04,0.41 1.52,0.79l-0.04 -1.06c0,-0.12 0.06,-0.23 0.19,-0.31 0.12,-0.09 0.33,-0.16 0.62,-0.23 0.15,-0.04 0.28,-0.06 0.38,-0.08 0.1,-0.01 0.19,-0.01 0.26,0 0.07,0.01 0.11,0.04 0.14,0.08 0.03,0.04 0.04,0.09 0.05,0.14l0.45 10.42zm-2.14 -7.25c-0.47,-0.43 -0.94,-0.72 -1.41,-0.88 -0.47,-0.16 -0.95,-0.17 -1.45,-0.05 -0.4,0.1 -0.73,0.28 -1.01,0.55 -0.27,0.27 -0.5,0.58 -0.67,0.95 -0.17,0.37 -0.3,0.77 -0.38,1.21 -0.08,0.44 -0.13,0.88 -0.15,1.33 -0.01,0.45 0.01,0.88 0.05,1.3 0.04,0.42 0.11,0.79 0.18,1.11 0.06,0.26 0.14,0.51 0.25,0.75 0.1,0.25 0.24,0.46 0.4,0.64 0.16,0.18 0.36,0.31 0.59,0.39 0.23,0.08 0.51,0.08 0.82,0 0.41,-0.1 0.79,-0.31 1.14,-0.63 0.35,-0.33 0.66,-0.73 0.92,-1.21 0.26,-0.49 0.46,-1.03 0.6,-1.63 0.14,-0.6 0.2,-1.24 0.17,-1.92l-0.07 -1.91zm13.48 -8.58c-0.01,0.22 -0.03,0.4 -0.08,0.55 -0.04,0.15 -0.11,0.28 -0.2,0.38 -0.09,0.1 -0.22,0.18 -0.37,0.24 -0.15,0.06 -0.34,0.11 -0.57,0.14 -0.22,0.03 -0.4,0.04 -0.55,0.02 -0.15,-0.02 -0.26,-0.06 -0.34,-0.14 -0.08,-0.08 -0.14,-0.19 -0.17,-0.33 -0.03,-0.14 -0.04,-0.32 -0.03,-0.54 0.02,-0.22 0.04,-0.4 0.09,-0.55 0.05,-0.15 0.12,-0.27 0.2,-0.39 0.09,-0.11 0.21,-0.19 0.36,-0.25 0.15,-0.06 0.34,-0.1 0.56,-0.13 0.22,-0.03 0.4,-0.04 0.54,-0.03 0.15,0.01 0.26,0.06 0.35,0.15 0.08,0.09 0.14,0.19 0.17,0.33 0.03,0.14 0.03,0.32 0.02,0.53zm-0.96 13.93c-0.01,0.06 -0.02,0.12 -0.05,0.16 -0.03,0.04 -0.08,0.09 -0.15,0.13 -0.07,0.04 -0.17,0.08 -0.29,0.11 -0.12,0.03 -0.27,0.06 -0.45,0.09 -0.18,0.03 -0.34,0.04 -0.46,0.04 -0.12,0 -0.21,-0.01 -0.28,-0.03 -0.07,-0.02 -0.11,-0.05 -0.14,-0.09 -0.02,-0.04 -0.03,-0.09 -0.03,-0.15l0.54 -10.4c0,-0.06 0.02,-0.11 0.05,-0.16 0.03,-0.05 0.08,-0.1 0.15,-0.14 0.07,-0.04 0.17,-0.07 0.29,-0.11 0.12,-0.03 0.28,-0.06 0.46,-0.09 0.18,-0.03 0.33,-0.04 0.44,-0.04 0.12,-0 0.21,0.01 0.28,0.03 0.07,0.02 0.11,0.05 0.14,0.1 0.03,0.04 0.04,0.09 0.04,0.14l-0.54 10.4zm12.21 -1.37c-0.01,0.06 -0.03,0.12 -0.06,0.16 -0.03,0.04 -0.09,0.09 -0.16,0.13 -0.08,0.04 -0.18,0.07 -0.29,0.1 -0.12,0.03 -0.27,0.05 -0.46,0.07 -0.18,0.02 -0.33,0.03 -0.45,0.03 -0.12,-0 -0.21,-0.02 -0.28,-0.04 -0.07,-0.02 -0.12,-0.06 -0.14,-0.09 -0.02,-0.04 -0.03,-0.09 -0.02,-0.15l0.4 -4.55 -5.01 0.55 -0.39 4.55c-0.01,0.06 -0.03,0.12 -0.06,0.16 -0.03,0.04 -0.09,0.09 -0.16,0.13 -0.07,0.04 -0.17,0.07 -0.3,0.1 -0.12,0.03 -0.27,0.05 -0.46,0.07 -0.18,0.02 -0.34,0.03 -0.46,0.03 -0.12,-0 -0.21,-0.02 -0.28,-0.04 -0.06,-0.02 -0.11,-0.06 -0.14,-0.09 -0.02,-0.04 -0.03,-0.09 -0.02,-0.15l0.89 -10.38c0,-0.06 0.02,-0.11 0.05,-0.16 0.03,-0.04 0.09,-0.09 0.16,-0.13 0.08,-0.04 0.17,-0.08 0.3,-0.1 0.12,-0.03 0.28,-0.05 0.46,-0.07 0.18,-0.02 0.33,-0.03 0.44,-0.03 0.12,-0 0.21,0.01 0.28,0.04 0.07,0.03 0.11,0.06 0.14,0.1 0.02,0.04 0.04,0.09 0.04,0.15l-0.36 4.22 5.01 -0.55 0.37 -4.22c0,-0.06 0.02,-0.11 0.05,-0.16 0.03,-0.04 0.09,-0.09 0.16,-0.13 0.08,-0.04 0.17,-0.08 0.3,-0.1 0.12,-0.02 0.27,-0.05 0.45,-0.06 0.18,-0.02 0.33,-0.03 0.45,-0.03 0.12,-0 0.22,0.01 0.28,0.04 0.07,0.03 0.11,0.06 0.14,0.1 0.02,0.04 0.04,0.09 0.04,0.15l-0.91 10.38zm13.3 -7.5c0.03,0.56 0,1.13 -0.07,1.72 -0.08,0.59 -0.21,1.15 -0.4,1.71 -0.19,0.55 -0.44,1.07 -0.75,1.56 -0.31,0.49 -0.68,0.93 -1.11,1.3 -0.43,0.38 -0.93,0.69 -1.49,0.92 -0.56,0.24 -1.19,0.37 -1.9,0.41 -0.72,0.04 -1.35,-0.02 -1.88,-0.17 -0.53,-0.15 -0.97,-0.38 -1.31,-0.7 -0.35,-0.32 -0.61,-0.71 -0.8,-1.19 -0.18,-0.48 -0.29,-1.02 -0.32,-1.63 -0.03,-0.56 -0.01,-1.13 0.07,-1.72 0.07,-0.59 0.2,-1.15 0.4,-1.7 0.19,-0.55 0.44,-1.07 0.75,-1.56 0.31,-0.5 0.67,-0.93 1.11,-1.31 0.43,-0.38 0.93,-0.69 1.49,-0.92 0.56,-0.24 1.2,-0.37 1.9,-0.41 0.73,-0.04 1.35,0.02 1.88,0.17 0.53,0.15 0.97,0.39 1.32,0.7 0.35,0.32 0.62,0.71 0.8,1.19 0.18,0.48 0.29,1.02 0.32,1.62zm-1.97 0.21c-0.02,-0.38 -0.07,-0.72 -0.17,-1.01 -0.09,-0.3 -0.24,-0.55 -0.43,-0.75 -0.2,-0.2 -0.44,-0.35 -0.75,-0.45 -0.3,-0.1 -0.67,-0.14 -1.09,-0.12 -0.46,0.02 -0.87,0.12 -1.23,0.31 -0.36,0.18 -0.68,0.42 -0.96,0.71 -0.28,0.29 -0.52,0.63 -0.71,1.01 -0.2,0.38 -0.36,0.79 -0.48,1.21 -0.12,0.43 -0.2,0.86 -0.25,1.31 -0.04,0.44 -0.06,0.88 -0.04,1.3 0.02,0.37 0.08,0.71 0.17,1.01 0.1,0.3 0.25,0.55 0.44,0.75 0.2,0.2 0.45,0.35 0.75,0.45 0.3,0.1 0.67,0.14 1.09,0.12 0.46,-0.02 0.87,-0.12 1.23,-0.31 0.36,-0.18 0.67,-0.42 0.95,-0.71 0.28,-0.29 0.51,-0.63 0.71,-1.01 0.19,-0.38 0.35,-0.79 0.47,-1.22 0.12,-0.43 0.2,-0.87 0.25,-1.31 0.04,-0.44 0.06,-0.88 0.04,-1.3zm12.33 -1.43c-0.01,0.31 -0.07,0.61 -0.2,0.91 -0.13,0.3 -0.31,0.57 -0.54,0.82 -0.23,0.25 -0.5,0.47 -0.81,0.66 -0.31,0.19 -0.65,0.33 -1.02,0.43l-0.01 0.03c0.24,0.03 0.47,0.09 0.69,0.2 0.23,0.11 0.43,0.25 0.6,0.42 0.18,0.18 0.32,0.38 0.42,0.62 0.1,0.23 0.15,0.51 0.15,0.81 -0.01,0.53 -0.13,1.03 -0.37,1.49 -0.23,0.47 -0.56,0.87 -1,1.21 -0.44,0.34 -0.97,0.61 -1.61,0.8 -0.63,0.19 -1.36,0.28 -2.17,0.27 -0.36,-0.01 -0.7,-0.04 -1.04,-0.1 -0.33,-0.06 -0.64,-0.14 -0.91,-0.23 -0.28,-0.09 -0.52,-0.19 -0.72,-0.31 -0.2,-0.12 -0.36,-0.23 -0.46,-0.34 -0.09,-0.07 -0.13,-0.19 -0.13,-0.37 0,-0.08 0.01,-0.19 0.04,-0.31 0.03,-0.13 0.06,-0.25 0.1,-0.36 0.04,-0.12 0.09,-0.22 0.15,-0.3 0.06,-0.08 0.13,-0.12 0.2,-0.12 0.09,0 0.2,0.05 0.34,0.15 0.13,0.1 0.31,0.21 0.52,0.33 0.21,0.12 0.47,0.23 0.79,0.33 0.32,0.1 0.7,0.15 1.15,0.16 0.5,0.01 0.94,-0.04 1.32,-0.14 0.39,-0.1 0.71,-0.25 0.98,-0.45 0.27,-0.2 0.47,-0.43 0.62,-0.7 0.14,-0.27 0.22,-0.57 0.22,-0.91 0,-0.17 -0.04,-0.33 -0.13,-0.5 -0.09,-0.17 -0.23,-0.32 -0.43,-0.45 -0.2,-0.13 -0.47,-0.24 -0.79,-0.32 -0.32,-0.08 -0.73,-0.12 -1.21,-0.13l-1.25 -0.02c-0.11,-0 -0.19,-0.03 -0.23,-0.08 -0.05,-0.05 -0.07,-0.13 -0.07,-0.22 0,-0.05 0.01,-0.13 0.03,-0.25 0.02,-0.12 0.05,-0.24 0.09,-0.38 0.04,-0.13 0.1,-0.25 0.18,-0.34 0.08,-0.1 0.17,-0.14 0.29,-0.14l1.01 0.02c0.5,0.01 0.95,-0.03 1.35,-0.11 0.39,-0.09 0.73,-0.21 1.01,-0.38 0.28,-0.17 0.5,-0.37 0.65,-0.61 0.15,-0.25 0.23,-0.52 0.23,-0.83 0.01,-0.43 -0.15,-0.75 -0.48,-0.96 -0.32,-0.21 -0.77,-0.32 -1.33,-0.33 -0.43,-0.01 -0.83,0.04 -1.2,0.14 -0.37,0.1 -0.69,0.21 -0.97,0.33 -0.29,0.12 -0.52,0.23 -0.71,0.33 -0.19,0.1 -0.32,0.15 -0.4,0.15 -0.14,-0 -0.21,-0.1 -0.2,-0.31 0,-0.09 0.01,-0.19 0.03,-0.3 0.02,-0.11 0.05,-0.22 0.09,-0.33 0.04,-0.12 0.09,-0.22 0.14,-0.32 0.05,-0.1 0.11,-0.18 0.17,-0.23 0.08,-0.08 0.23,-0.18 0.47,-0.29 0.23,-0.11 0.51,-0.21 0.83,-0.3 0.32,-0.09 0.66,-0.17 1.03,-0.23 0.37,-0.07 0.75,-0.1 1.12,-0.09 0.55,0.01 1.04,0.07 1.47,0.19 0.42,0.12 0.78,0.28 1.06,0.5 0.28,0.22 0.49,0.48 0.63,0.79 0.14,0.31 0.21,0.65 0.2,1.03zm11.79 0.83c-0.04,0.52 -0.2,0.98 -0.47,1.38 -0.27,0.39 -0.68,0.72 -1.21,0.98 -0.53,0.25 -1.21,0.43 -2.02,0.52 -0.81,0.1 -1.78,0.1 -2.89,0.02l-1.2 -0.09c-0.07,0.24 -0.13,0.48 -0.16,0.71 -0.04,0.23 -0.06,0.45 -0.08,0.65 -0.06,0.75 0.08,1.34 0.43,1.77 0.34,0.43 0.93,0.67 1.77,0.74 0.48,0.04 0.92,0.04 1.31,-0.01 0.39,-0.04 0.73,-0.09 1.02,-0.15 0.29,-0.06 0.53,-0.12 0.72,-0.17 0.18,-0.06 0.31,-0.08 0.38,-0.08 0.07,0.01 0.12,0.03 0.15,0.08 0.03,0.05 0.04,0.12 0.03,0.21 -0.01,0.08 -0.02,0.17 -0.04,0.27 -0.02,0.1 -0.06,0.21 -0.09,0.32 -0.04,0.11 -0.09,0.21 -0.14,0.3 -0.06,0.09 -0.12,0.17 -0.19,0.23 -0.1,0.09 -0.26,0.16 -0.5,0.23 -0.24,0.07 -0.52,0.13 -0.84,0.17 -0.32,0.05 -0.67,0.08 -1.05,0.09 -0.38,0.02 -0.76,0.01 -1.14,-0.02 -0.67,-0.05 -1.25,-0.17 -1.75,-0.36 -0.49,-0.19 -0.9,-0.45 -1.21,-0.79 -0.31,-0.34 -0.53,-0.75 -0.66,-1.23 -0.13,-0.48 -0.17,-1.04 -0.12,-1.67 0.04,-0.49 0.12,-1.01 0.26,-1.57 0.14,-0.55 0.33,-1.1 0.57,-1.63 0.25,-0.54 0.55,-1.04 0.91,-1.52 0.36,-0.48 0.78,-0.9 1.27,-1.25 0.48,-0.35 1.02,-0.62 1.62,-0.81 0.61,-0.19 1.28,-0.25 2.02,-0.2 0.63,0.05 1.16,0.17 1.59,0.36 0.43,0.19 0.78,0.42 1.04,0.69 0.26,0.27 0.45,0.56 0.55,0.88 0.1,0.32 0.15,0.63 0.12,0.93zm-1.94 0.01c0.03,-0.39 -0.1,-0.71 -0.38,-0.97 -0.28,-0.26 -0.7,-0.41 -1.26,-0.45 -0.49,-0.04 -0.93,0.01 -1.32,0.16 -0.39,0.14 -0.74,0.34 -1.05,0.61 -0.31,0.26 -0.59,0.58 -0.83,0.94 -0.23,0.37 -0.43,0.76 -0.6,1.17l1.15 0.09c0.79,0.06 1.46,0.06 1.99,0.01 0.54,-0.06 0.98,-0.16 1.31,-0.3 0.33,-0.15 0.57,-0.33 0.72,-0.54 0.15,-0.22 0.23,-0.45 0.25,-0.7z"/>
    <path class="fil0" d="M178.37 24.07c-0.04,0.16 -0.13,0.27 -0.27,0.32 -0.14,0.05 -0.38,0.05 -0.73,-0 -0.19,-0.03 -0.34,-0.05 -0.46,-0.08 -0.12,-0.02 -0.2,-0.05 -0.26,-0.08 -0.06,-0.03 -0.09,-0.07 -0.1,-0.11 -0.01,-0.04 -0.01,-0.1 0.01,-0.16l1.27 -5.83c0.04,-0.15 0.09,-0.34 0.15,-0.58 0.06,-0.25 0.13,-0.51 0.21,-0.79 0.08,-0.28 0.15,-0.57 0.23,-0.86 0.08,-0.3 0.16,-0.56 0.23,-0.8l-0.01 -0c-0.14,0.2 -0.29,0.41 -0.46,0.63 -0.16,0.22 -0.33,0.45 -0.49,0.68 -0.17,0.23 -0.33,0.46 -0.5,0.68 -0.17,0.23 -0.32,0.44 -0.47,0.64l-4.16 5.5c-0.06,0.08 -0.12,0.15 -0.18,0.21 -0.06,0.05 -0.13,0.09 -0.22,0.12 -0.09,0.02 -0.19,0.04 -0.31,0.03 -0.12,-0 -0.27,-0.02 -0.44,-0.04 -0.15,-0.02 -0.26,-0.05 -0.36,-0.08 -0.1,-0.03 -0.17,-0.06 -0.23,-0.11 -0.06,-0.04 -0.1,-0.1 -0.12,-0.16 -0.02,-0.07 -0.03,-0.15 -0.03,-0.23l0.01 -6.12c-0,-0.25 -0,-0.51 0,-0.78 0,-0.26 0.01,-0.52 0.02,-0.77 0.01,-0.25 0.02,-0.49 0.04,-0.72 0.01,-0.23 0.02,-0.44 0.04,-0.63l-0.02 -0c-0.1,0.23 -0.2,0.47 -0.31,0.72 -0.11,0.25 -0.23,0.51 -0.34,0.76 -0.12,0.26 -0.23,0.51 -0.35,0.77 -0.12,0.25 -0.23,0.49 -0.34,0.71l-2.68 5.52c-0.04,0.08 -0.09,0.15 -0.14,0.2 -0.05,0.05 -0.11,0.08 -0.19,0.1 -0.08,0.02 -0.18,0.02 -0.31,0.01 -0.13,-0.01 -0.29,-0.03 -0.48,-0.06 -0.18,-0.03 -0.33,-0.06 -0.43,-0.09 -0.11,-0.03 -0.18,-0.07 -0.22,-0.11 -0.04,-0.04 -0.06,-0.09 -0.05,-0.15 0.01,-0.06 0.03,-0.12 0.07,-0.2l4.42 -9.12c0.12,-0.23 0.26,-0.39 0.44,-0.49 0.18,-0.1 0.39,-0.13 0.66,-0.09l0.79 0.11c0.22,0.03 0.39,0.07 0.53,0.13 0.14,0.06 0.25,0.13 0.33,0.23 0.08,0.09 0.14,0.22 0.17,0.36 0.03,0.14 0.04,0.32 0.03,0.54l0.03 4.39c0,0.27 -0,0.54 -0.01,0.81 -0.01,0.27 -0.02,0.53 -0.02,0.8 -0.01,0.26 -0.02,0.52 -0.03,0.77 -0.02,0.25 -0.04,0.49 -0.05,0.72l0.02 0c0.15,-0.22 0.3,-0.45 0.47,-0.68 0.16,-0.24 0.33,-0.48 0.5,-0.73 0.17,-0.24 0.35,-0.49 0.52,-0.73 0.17,-0.25 0.35,-0.47 0.52,-0.69l2.93 -3.94c0.12,-0.17 0.25,-0.32 0.37,-0.44 0.12,-0.12 0.25,-0.22 0.38,-0.29 0.14,-0.07 0.28,-0.11 0.44,-0.13 0.16,-0.02 0.34,-0.01 0.55,0.02l0.97 0.14c0.27,0.04 0.46,0.13 0.56,0.25 0.1,0.13 0.12,0.31 0.05,0.56l-2.16 9.48zm11.28 2.64c-0.03,0.06 -0.06,0.1 -0.11,0.14 -0.05,0.03 -0.11,0.06 -0.19,0.07 -0.09,0.01 -0.19,0.01 -0.31,0 -0.12,-0.01 -0.27,-0.03 -0.46,-0.07 -0.18,-0.04 -0.32,-0.07 -0.44,-0.11 -0.11,-0.04 -0.2,-0.08 -0.25,-0.12 -0.06,-0.04 -0.09,-0.09 -0.1,-0.13 -0.01,-0.04 0,-0.1 0.03,-0.15l1.79 -4.2 -4.94 -1.03 -1.78 4.21c-0.03,0.06 -0.06,0.1 -0.11,0.14 -0.05,0.03 -0.11,0.06 -0.19,0.07 -0.08,0.01 -0.18,0.01 -0.31,0 -0.12,-0.01 -0.28,-0.03 -0.46,-0.07 -0.18,-0.04 -0.33,-0.08 -0.44,-0.12 -0.11,-0.04 -0.19,-0.08 -0.25,-0.12 -0.05,-0.04 -0.09,-0.09 -0.1,-0.13 -0.01,-0.04 0,-0.1 0.03,-0.15l4.07 -9.59c0.02,-0.06 0.05,-0.1 0.1,-0.14 0.04,-0.03 0.11,-0.06 0.19,-0.07 0.09,-0.02 0.19,-0.02 0.32,-0 0.12,0.01 0.28,0.04 0.45,0.08 0.18,0.04 0.32,0.07 0.43,0.11 0.11,0.04 0.2,0.08 0.25,0.12 0.06,0.05 0.09,0.09 0.1,0.14 0.01,0.05 0.01,0.1 -0.01,0.16l-1.66 3.9 4.94 1.03 1.66 -3.9c0.02,-0.06 0.05,-0.1 0.1,-0.14 0.05,-0.03 0.11,-0.06 0.19,-0.07 0.09,-0.02 0.19,-0.02 0.31,-0.01 0.12,0.01 0.27,0.04 0.45,0.08 0.18,0.04 0.33,0.07 0.44,0.11 0.12,0.04 0.2,0.08 0.26,0.13 0.05,0.05 0.09,0.09 0.1,0.14 0.01,0.05 0.01,0.1 -0.01,0.16l-4.09 9.58zm11.52 3.4c-0.03,0.06 -0.06,0.1 -0.11,0.13 -0.05,0.03 -0.11,0.05 -0.18,0.06 -0.07,0 -0.17,-0 -0.28,-0.02 -0.11,-0.02 -0.24,-0.05 -0.4,-0.1 -0.14,-0.04 -0.26,-0.09 -0.35,-0.13 -0.1,-0.05 -0.16,-0.09 -0.21,-0.13 -0.04,-0.04 -0.07,-0.09 -0.07,-0.14 -0,-0.05 0.01,-0.1 0.04,-0.15l0.93 -1.72c-0.19,0.21 -0.45,0.41 -0.79,0.6 -0.33,0.19 -0.71,0.35 -1.11,0.47 -0.41,0.12 -0.84,0.19 -1.29,0.21 -0.44,0.02 -0.87,-0.04 -1.29,-0.17 -0.49,-0.15 -0.88,-0.35 -1.17,-0.59 -0.29,-0.24 -0.5,-0.51 -0.64,-0.81 -0.13,-0.3 -0.19,-0.62 -0.18,-0.97 0.01,-0.35 0.08,-0.72 0.2,-1.1 0.07,-0.24 0.17,-0.47 0.28,-0.71 0.11,-0.24 0.23,-0.48 0.36,-0.71l3.12 -5.73c0.03,-0.05 0.07,-0.08 0.12,-0.12 0.05,-0.03 0.12,-0.05 0.2,-0.05 0.08,-0.01 0.19,0 0.31,0.03 0.12,0.03 0.27,0.07 0.44,0.12 0.17,0.06 0.32,0.1 0.43,0.15 0.11,0.05 0.19,0.1 0.24,0.15 0.05,0.04 0.08,0.09 0.08,0.14 0,0.05 -0.01,0.1 -0.03,0.15l-3.09 5.67c-0.1,0.17 -0.19,0.36 -0.28,0.55 -0.09,0.2 -0.16,0.4 -0.23,0.61 -0.07,0.21 -0.11,0.42 -0.13,0.61 -0.02,0.19 0,0.36 0.06,0.52 0.06,0.16 0.15,0.3 0.28,0.42 0.13,0.12 0.31,0.22 0.53,0.29 0.38,0.12 0.81,0.13 1.28,0.04 0.47,-0.09 0.94,-0.28 1.41,-0.56 0.47,-0.28 0.93,-0.65 1.37,-1.09 0.44,-0.45 0.83,-0.97 1.16,-1.56l2.2 -4.04c0.02,-0.05 0.06,-0.09 0.11,-0.12 0.06,-0.03 0.12,-0.05 0.21,-0.05 0.08,-0.01 0.19,0 0.31,0.03 0.12,0.03 0.27,0.07 0.44,0.12 0.17,0.06 0.32,0.1 0.42,0.15 0.11,0.05 0.19,0.1 0.24,0.15 0.05,0.04 0.08,0.09 0.08,0.14 0,0.05 -0.01,0.1 -0.03,0.15l-5.02 9.14zm10.5 -1.52l0.19 5.46c0,0.12 -0.02,0.21 -0.05,0.27 -0.04,0.06 -0.1,0.1 -0.2,0.11 -0.09,0.01 -0.21,-0 -0.35,-0.04 -0.14,-0.04 -0.32,-0.1 -0.53,-0.19 -0.2,-0.08 -0.35,-0.15 -0.46,-0.2 -0.11,-0.06 -0.19,-0.11 -0.24,-0.16 -0.05,-0.05 -0.08,-0.1 -0.09,-0.15 -0.01,-0.05 -0.01,-0.1 -0.01,-0.16l-0.06 -4.37 -4.48 2.54c-0.06,0.03 -0.12,0.06 -0.18,0.08 -0.06,0.02 -0.14,0.02 -0.23,0.01 -0.09,-0.01 -0.21,-0.04 -0.34,-0.08 -0.14,-0.04 -0.31,-0.1 -0.52,-0.18 -0.2,-0.08 -0.37,-0.16 -0.49,-0.23 -0.12,-0.07 -0.2,-0.14 -0.24,-0.2 -0.04,-0.07 -0.05,-0.13 -0.01,-0.19 0.04,-0.06 0.11,-0.12 0.22,-0.19l5.81 -3.09 -0.16 -5.21c-0,-0.12 0.01,-0.21 0.05,-0.27 0.03,-0.07 0.1,-0.1 0.18,-0.12 0.08,-0.01 0.2,0 0.33,0.04 0.14,0.04 0.32,0.1 0.54,0.19 0.19,0.08 0.34,0.14 0.45,0.2 0.11,0.06 0.18,0.11 0.23,0.15 0.05,0.04 0.08,0.09 0.09,0.13 0.01,0.05 0.01,0.1 0.02,0.15l0.08 4.15 4.27 -2.39c0.06,-0.03 0.12,-0.04 0.17,-0.06 0.06,-0.02 0.13,-0.02 0.22,-0.02 0.09,0.01 0.19,0.03 0.31,0.06 0.12,0.04 0.28,0.09 0.47,0.17 0.21,0.08 0.38,0.16 0.5,0.23 0.13,0.07 0.21,0.13 0.27,0.19 0.05,0.06 0.05,0.12 0.01,0.19 -0.03,0.06 -0.12,0.12 -0.25,0.19l-5.5 2.98zm18.47 14.68c-0.09,0.14 -0.21,0.21 -0.36,0.21 -0.14,-0 -0.37,-0.09 -0.69,-0.25 -0.17,-0.09 -0.31,-0.17 -0.41,-0.23 -0.1,-0.06 -0.17,-0.12 -0.21,-0.17 -0.04,-0.05 -0.06,-0.1 -0.06,-0.14 0,-0.04 0.02,-0.09 0.06,-0.15l3.19 -5.04c0.09,-0.13 0.2,-0.29 0.34,-0.5 0.14,-0.21 0.3,-0.43 0.46,-0.67 0.17,-0.24 0.34,-0.48 0.52,-0.73 0.18,-0.25 0.34,-0.48 0.49,-0.68l-0.01 -0c-0.2,0.14 -0.42,0.29 -0.64,0.44 -0.23,0.15 -0.46,0.31 -0.69,0.47 -0.23,0.16 -0.47,0.32 -0.7,0.47 -0.23,0.16 -0.45,0.31 -0.66,0.44l-5.79 3.75c-0.08,0.06 -0.16,0.1 -0.24,0.13 -0.07,0.03 -0.15,0.04 -0.24,0.04 -0.09,-0.01 -0.19,-0.03 -0.3,-0.08 -0.11,-0.04 -0.25,-0.11 -0.4,-0.19 -0.13,-0.07 -0.23,-0.13 -0.31,-0.19 -0.08,-0.06 -0.14,-0.12 -0.18,-0.18 -0.04,-0.06 -0.06,-0.12 -0.06,-0.19 0,-0.07 0.02,-0.15 0.05,-0.23l2.1 -5.75c0.09,-0.24 0.17,-0.48 0.27,-0.73 0.09,-0.25 0.19,-0.48 0.28,-0.72 0.09,-0.23 0.19,-0.45 0.28,-0.67 0.09,-0.21 0.17,-0.4 0.25,-0.58l-0.01 -0.01c-0.17,0.18 -0.35,0.38 -0.54,0.57 -0.19,0.2 -0.39,0.4 -0.58,0.6 -0.2,0.2 -0.39,0.4 -0.59,0.6 -0.2,0.2 -0.39,0.38 -0.57,0.55l-4.41 4.27c-0.07,0.06 -0.14,0.11 -0.2,0.14 -0.06,0.03 -0.13,0.04 -0.22,0.02 -0.08,-0.01 -0.18,-0.04 -0.29,-0.09 -0.12,-0.05 -0.26,-0.12 -0.44,-0.22 -0.16,-0.09 -0.29,-0.16 -0.38,-0.23 -0.09,-0.06 -0.14,-0.13 -0.17,-0.18 -0.02,-0.06 -0.02,-0.11 0.01,-0.16 0.03,-0.05 0.07,-0.11 0.14,-0.16l7.27 -7.06c0.19,-0.17 0.38,-0.28 0.58,-0.31 0.2,-0.03 0.42,0.01 0.65,0.14l0.7 0.38c0.19,0.1 0.34,0.2 0.46,0.3 0.11,0.1 0.19,0.21 0.23,0.33 0.04,0.12 0.06,0.25 0.03,0.4 -0.03,0.14 -0.07,0.32 -0.15,0.52l-1.47 4.14c-0.09,0.25 -0.19,0.51 -0.29,0.76 -0.1,0.25 -0.2,0.5 -0.29,0.74 -0.1,0.24 -0.19,0.48 -0.29,0.71 -0.1,0.23 -0.2,0.45 -0.29,0.65l0.02 0.01c0.21,-0.16 0.44,-0.31 0.67,-0.48 0.24,-0.17 0.48,-0.34 0.72,-0.51 0.25,-0.17 0.49,-0.34 0.74,-0.51 0.25,-0.17 0.49,-0.33 0.73,-0.47l4.1 -2.7c0.18,-0.12 0.34,-0.22 0.5,-0.29 0.15,-0.08 0.31,-0.12 0.46,-0.14 0.15,-0.02 0.3,-0.01 0.46,0.03 0.15,0.03 0.32,0.1 0.51,0.2l0.87 0.47c0.24,0.13 0.39,0.27 0.44,0.43 0.05,0.15 0,0.33 -0.14,0.54l-5.27 8.17zm14.57 2.7c-0.33,0.46 -0.7,0.89 -1.13,1.3 -0.42,0.41 -0.88,0.77 -1.38,1.09 -0.49,0.31 -1.01,0.56 -1.56,0.76 -0.55,0.19 -1.11,0.3 -1.68,0.33 -0.57,0.03 -1.15,-0.04 -1.74,-0.21 -0.59,-0.17 -1.16,-0.45 -1.74,-0.86 -0.59,-0.42 -1.04,-0.86 -1.36,-1.3 -0.32,-0.45 -0.52,-0.9 -0.59,-1.37 -0.08,-0.47 -0.04,-0.94 0.12,-1.42 0.15,-0.49 0.41,-0.98 0.77,-1.48 0.33,-0.46 0.7,-0.89 1.13,-1.3 0.42,-0.41 0.88,-0.78 1.37,-1.08 0.49,-0.31 1.01,-0.56 1.56,-0.76 0.55,-0.2 1.11,-0.31 1.68,-0.33 0.57,-0.03 1.15,0.04 1.73,0.21 0.59,0.17 1.17,0.45 1.74,0.86 0.59,0.43 1.04,0.86 1.36,1.31 0.32,0.45 0.51,0.9 0.59,1.37 0.08,0.47 0.04,0.94 -0.11,1.43 -0.15,0.49 -0.41,0.97 -0.76,1.46zm-1.67 -1.07c0.22,-0.31 0.39,-0.61 0.5,-0.9 0.12,-0.29 0.16,-0.58 0.13,-0.85 -0.03,-0.28 -0.13,-0.55 -0.3,-0.82 -0.18,-0.27 -0.43,-0.52 -0.78,-0.77 -0.37,-0.27 -0.75,-0.44 -1.15,-0.53 -0.4,-0.09 -0.8,-0.1 -1.19,-0.05 -0.4,0.05 -0.79,0.17 -1.19,0.34 -0.39,0.17 -0.77,0.39 -1.13,0.65 -0.36,0.26 -0.7,0.55 -1.01,0.87 -0.31,0.32 -0.59,0.65 -0.84,1 -0.22,0.3 -0.38,0.61 -0.5,0.9 -0.11,0.3 -0.15,0.58 -0.12,0.87 0.03,0.28 0.13,0.56 0.3,0.82 0.18,0.27 0.43,0.52 0.78,0.77 0.37,0.27 0.76,0.45 1.15,0.53 0.39,0.08 0.79,0.09 1.19,0.04 0.4,-0.06 0.79,-0.17 1.19,-0.35 0.39,-0.18 0.77,-0.39 1.13,-0.66 0.36,-0.26 0.7,-0.55 1.01,-0.87 0.31,-0.32 0.59,-0.65 0.84,-0.99zm7.7 12c-0.23,0.23 -0.48,0.43 -0.77,0.6 -0.29,0.17 -0.59,0.3 -0.92,0.38 -0.33,0.09 -0.68,0.12 -1.06,0.1 -0.37,-0.02 -0.76,-0.09 -1.15,-0.22 -0.39,-0.13 -0.79,-0.33 -1.2,-0.59 -0.41,-0.26 -0.83,-0.59 -1.24,-1 -0.54,-0.53 -0.92,-1.03 -1.14,-1.51 -0.22,-0.49 -0.33,-0.95 -0.32,-1.38 0.01,-0.44 0.12,-0.85 0.32,-1.24 0.21,-0.39 0.48,-0.76 0.81,-1.09 0.23,-0.24 0.55,-0.52 0.94,-0.83 0.4,-0.32 0.85,-0.62 1.37,-0.93 0.52,-0.3 1.08,-0.55 1.68,-0.77 0.61,-0.21 1.23,-0.33 1.87,-0.35 0.64,-0.02 1.29,0.09 1.94,0.32 0.65,0.23 1.29,0.65 1.9,1.25 0.43,0.42 0.76,0.84 0.97,1.25 0.21,0.41 0.34,0.79 0.39,1.15 0.04,0.36 0.01,0.7 -0.1,1 -0.11,0.31 -0.28,0.58 -0.5,0.8 -0.24,0.25 -0.51,0.44 -0.8,0.56 -0.29,0.12 -0.59,0.19 -0.9,0.21 -0.31,0.02 -0.62,-0.02 -0.94,-0.09 -0.32,-0.08 -0.63,-0.2 -0.93,-0.37 0.19,0.3 0.31,0.59 0.37,0.86 0.06,0.27 0.07,0.52 0.03,0.75 -0.04,0.23 -0.12,0.44 -0.23,0.63 -0.11,0.19 -0.24,0.36 -0.38,0.51zm2.28 -4.22c0.12,-0.12 0.21,-0.27 0.27,-0.42 0.06,-0.16 0.08,-0.33 0.05,-0.52 -0.02,-0.19 -0.1,-0.38 -0.21,-0.58 -0.12,-0.2 -0.28,-0.4 -0.51,-0.62 -0.27,-0.26 -0.57,-0.47 -0.91,-0.63 -0.33,-0.15 -0.7,-0.24 -1.1,-0.26 -0.4,-0.02 -0.82,0.03 -1.27,0.15 -0.45,0.12 -0.93,0.32 -1.43,0.61l1.77 1.73c0.34,0.33 0.66,0.58 0.98,0.75 0.32,0.17 0.62,0.28 0.9,0.31 0.29,0.04 0.55,0 0.79,-0.09 0.25,-0.09 0.47,-0.24 0.67,-0.45zm-3.73 2.95c0.13,-0.14 0.24,-0.29 0.31,-0.47 0.08,-0.18 0.09,-0.38 0.05,-0.61 -0.04,-0.23 -0.15,-0.48 -0.32,-0.77 -0.17,-0.28 -0.43,-0.6 -0.78,-0.94l-1.73 -1.69c-0.26,0.17 -0.49,0.35 -0.7,0.52 -0.21,0.17 -0.4,0.35 -0.58,0.53 -0.52,0.53 -0.78,1.04 -0.8,1.54 -0.01,0.5 0.25,1.02 0.8,1.56 0.37,0.37 0.74,0.63 1.1,0.79 0.36,0.16 0.71,0.24 1.03,0.24 0.33,0 0.63,-0.06 0.9,-0.19 0.28,-0.13 0.51,-0.3 0.71,-0.5z"/>
   </g>
   <path class="fil1" d="M255.13 127.58c0.47,-0.54 1.3,-0.6 1.84,-0.13 0.54,0.47 0.6,1.3 0.13,1.84 -11.06,12.79 -27.5,23.48 -47.43,30.9 -19.21,7.15 -41.65,11.25 -65.62,11.25 -25.45,0 -49.18,-4.63 -69.14,-12.61 -20.67,-8.27 -37.3,-20.14 -47.64,-34.21 -0.43,-0.58 -0.3,-1.4 0.28,-1.83 0.58,-0.43 1.4,-0.3 1.83,0.28 10.04,13.67 26.28,25.24 46.5,33.33 19.65,7.86 43.04,12.42 68.17,12.42 23.67,0 45.8,-4.04 64.71,-11.08 19.52,-7.26 35.59,-17.7 46.37,-30.16z"/>
   <path class="fil1" d="M262.47 46.82c0.43,0.58 0.3,1.4 -0.28,1.83 -0.58,0.43 -1.4,0.3 -1.83,-0.28 -10.04,-13.67 -26.28,-25.24 -46.5,-33.33 -19.65,-7.86 -43.04,-12.42 -68.17,-12.42 -25.12,0 -48.52,4.56 -68.17,12.42 -20.22,8.09 -36.46,19.65 -46.5,33.33 -0.43,0.58 -1.24,0.71 -1.83,0.28 -0.58,-0.43 -0.71,-1.24 -0.28,-1.83 10.33,-14.07 26.97,-25.94 47.63,-34.21 19.96,-7.98 43.69,-12.61 69.14,-12.61 25.45,0 49.18,4.63 69.14,12.61 20.67,8.27 37.3,20.14 47.63,34.21z"/>
   <g>
    <path class="fil1" d="M5.12 103.72c-0.22,-0.31 -0.48,-0.46 -0.79,-0.46 -0.61,0.04 -0.97,0.31 -1.08,0.79 -0.11,0.48 -0.16,0.77 -0.16,0.85 0,0.22 0.04,0.51 0.13,0.89 0.09,0.37 0.28,0.8 0.59,1.28 0.92,1.31 2.2,2.23 3.84,2.75 1.64,0.52 3.2,0.79 4.69,0.79 0.52,0 1.32,-0.05 2.39,-0.16 1.07,-0.11 2.24,-0.4 3.51,-0.89 0.92,-0.35 1.91,-0.84 2.98,-1.48 1.07,-0.63 2.19,-1.44 3.35,-2.43 1.16,-0.98 2.35,-2.16 3.57,-3.54 1.22,-1.38 2.45,-3.03 3.67,-4.95 1.36,-2.1 2.6,-4.26 3.74,-6.49 1.14,-2.23 2.14,-4.34 3.02,-6.33 0.87,-1.99 1.6,-3.75 2.16,-5.28 0.57,-1.53 0.96,-2.6 1.18,-3.21 -0.31,-0.35 -0.6,-0.71 -0.89,-1.08 -0.28,-0.37 -0.6,-0.73 -0.95,-1.08 -1.36,-1.53 -2.65,-2.8 -3.87,-3.8 -1.22,-1.01 -2.14,-1.73 -2.75,-2.16 -1.49,-1.14 -3.17,-2.16 -5.05,-3.08 -1.88,-0.92 -3.8,-1.38 -5.77,-1.38 -0.26,0 -0.7,0.03 -1.31,0.1 -0.61,0.07 -1.27,0.22 -1.97,0.46 -0.7,0.24 -1.39,0.62 -2.07,1.15 -0.68,0.52 -1.24,1.25 -1.67,2.16 -0.13,0.31 -0.27,0.72 -0.43,1.25 -0.15,0.52 -0.23,1.18 -0.23,1.97 0,0.87 0.23,1.98 0.69,3.31 0.46,1.33 1.41,2.72 2.85,4.17 0.74,0.74 1.6,1.44 2.56,2.1 0.96,0.66 1.99,1.24 3.08,1.74 1.09,0.5 2.2,0.91 3.31,1.21 1.12,0.31 2.2,0.46 3.25,0.46 0.74,0 1.4,-0.08 1.97,-0.23 0.57,-0.15 1.38,-0.6 2.43,-1.34l0.52 -0.46c0,-0.04 0.09,-0.16 0.26,-0.36 0.17,-0.2 0.37,-0.29 0.59,-0.29 0.22,0 0.36,0.1 0.43,0.29 0.07,0.2 0.1,0.32 0.1,0.36 0,0.26 -0.14,0.57 -0.43,0.92 -0.28,0.35 -0.51,0.61 -0.69,0.79 -0.66,0.61 -1.61,1.22 -2.85,1.84 -1.25,0.61 -2.92,0.92 -5.02,0.92 -1.31,0 -2.65,-0.14 -4,-0.43 -1.36,-0.28 -2.67,-0.72 -3.94,-1.31 -1.27,-0.59 -2.44,-1.33 -3.51,-2.23 -1.07,-0.9 -1.96,-1.94 -2.66,-3.12 -0.26,-0.48 -0.6,-1.22 -1.02,-2.23 -0.42,-1.01 -0.62,-2.25 -0.62,-3.74 0,-1.62 0.26,-3.01 0.79,-4.17 0.52,-1.16 0.94,-1.96 1.25,-2.39 0.7,-1.09 1.61,-2.07 2.72,-2.92 1.12,-0.85 2.31,-1.57 3.57,-2.16 1.27,-0.59 2.59,-1.04 3.97,-1.34 1.38,-0.31 2.7,-0.46 3.97,-0.46 0.57,0 1.38,0.05 2.43,0.16 1.05,0.11 2.25,0.4 3.61,0.89 1.79,0.66 3.4,1.45 4.82,2.39 1.42,0.94 2.65,1.9 3.67,2.89 1.03,0.98 1.87,1.92 2.52,2.82 0.66,0.9 1.16,1.59 1.51,2.07 1.57,2.36 2.85,4.9 3.84,7.61 0.98,2.71 1.78,5.5 2.39,8.36 0.61,2.86 1.05,5.74 1.31,8.63 0.26,2.89 0.46,5.68 0.59,8.4l4.66 -13.97c0.7,-1.97 1.44,-4.02 2.23,-6.17 0.79,-2.14 1.67,-4.25 2.66,-6.33 0.98,-2.08 2.09,-4.08 3.31,-6 1.22,-1.92 2.6,-3.63 4.13,-5.12 1.36,-1.31 2.93,-2.46 4.72,-3.44 1.79,-0.98 3.67,-1.45 5.64,-1.41 0.79,0 1.52,0.11 2.2,0.33 0.68,0.22 1.28,0.63 1.8,1.25 0.09,0.13 0.24,0.38 0.46,0.75 0.22,0.37 0.33,0.82 0.33,1.34 0,0.48 -0.13,0.94 -0.39,1.38 -0.26,0.48 -0.56,0.85 -0.89,1.12 -0.33,0.26 -0.67,0.46 -1.02,0.59 -0.35,0.13 -0.67,0.22 -0.95,0.26 -0.28,0.04 -0.51,0.07 -0.69,0.07 -0.74,0 -1.34,-0.15 -1.8,-0.46 -0.46,-0.31 -0.8,-0.57 -1.02,-0.79 -0.13,-0.22 -0.25,-0.44 -0.36,-0.66 -0.11,-0.22 -0.16,-0.44 -0.16,-0.66 0,-0.35 0.07,-0.6 0.2,-0.75 0.13,-0.15 0.31,-0.32 0.52,-0.49l0.39 -0.26c0.04,0 0.13,-0.05 0.26,-0.16 0.13,-0.11 0.2,-0.27 0.2,-0.49 0,-0.26 -0.16,-0.44 -0.49,-0.52 -0.33,-0.09 -0.58,-0.13 -0.75,-0.13 -0.52,0 -1.17,0.16 -1.93,0.49 -0.77,0.33 -1.59,0.91 -2.46,1.74 -2.58,2.45 -5.66,7.39 -9.25,14.82 -1.22,2.49 -2.38,5 -3.48,7.51 -1.09,2.51 -2.08,4.87 -2.95,7.05 -0.87,2.19 -1.62,4.11 -2.23,5.77 -0.61,1.66 -1.05,2.89 -1.31,3.67 -0.35,1.09 -0.66,2.19 -0.92,3.28 -0.26,1.09 -0.5,2.21 -0.72,3.35l-0.07 0.52c-0.09,0.13 -0.2,0.37 -0.33,0.72 -0.13,0.35 -0.46,0.52 -0.98,0.52 -0.22,0 -0.44,-0.07 -0.66,-0.2 -0.22,-0.13 -0.33,-0.44 -0.33,-0.92 0,-0.39 0.04,-0.68 0.13,-0.85l0.13 -0.66c0.22,-0.79 0.37,-1.45 0.46,-2 0.09,-0.55 0.13,-1.21 0.13,-2 0,-0.83 -0.11,-2.11 -0.33,-3.84 -0.22,-1.73 -0.6,-3.7 -1.15,-5.9 -0.55,-2.21 -1.3,-4.56 -2.26,-7.05 -0.96,-2.49 -2.16,-4.92 -3.61,-7.28 -0.44,-0.7 -0.9,-1.37 -1.38,-2 -0.48,-0.63 -0.96,-1.26 -1.44,-1.87 -0.7,1.66 -1.4,3.31 -2.1,4.95 -0.7,1.64 -1.42,3.29 -2.16,4.95 -1.14,2.58 -2.23,4.88 -3.28,6.89 -1.05,2.01 -2.07,3.79 -3.05,5.35 -0.98,1.55 -1.97,2.91 -2.95,4.07 -0.98,1.16 -1.96,2.18 -2.92,3.05 -2.1,1.84 -4.31,3.15 -6.62,3.94 -2.32,0.79 -4.85,1.18 -7.61,1.18 -2.36,0 -4.3,-0.26 -5.8,-0.79 -1.51,-0.52 -2.7,-1.09 -3.57,-1.71 -0.74,-0.52 -1.33,-1.07 -1.77,-1.64 -0.44,-0.57 -0.78,-1.13 -1.02,-1.67 -0.24,-0.55 -0.41,-1.07 -0.49,-1.57 -0.09,-0.5 -0.13,-0.93 -0.13,-1.28 0,-1.57 0.48,-2.9 1.44,-3.97 0.96,-1.07 2.25,-1.61 3.87,-1.61 0.87,0 1.59,0.15 2.13,0.46 0.55,0.31 0.98,0.67 1.31,1.08 0.33,0.42 0.55,0.84 0.66,1.28 0.11,0.44 0.16,0.81 0.16,1.12 0,0.61 -0.11,1.12 -0.33,1.51 -0.22,0.39 -0.47,0.71 -0.75,0.95 -0.28,0.24 -0.59,0.4 -0.92,0.49 -0.33,0.09 -0.58,0.13 -0.75,0.13 -0.35,0 -0.62,-0.07 -0.82,-0.2 -0.2,-0.13 -0.34,-0.26 -0.43,-0.39l-0.46 -0.46zm107.7 6.23c0.17,0 0.33,0.02 0.46,0.07 0.22,0.13 0.33,0.28 0.33,0.46 0,0.35 -0.35,0.52 -1.05,0.52 -0.22,0 -0.71,-0.07 -1.48,-0.2 -0.77,-0.13 -1.52,-0.44 -2.25,-0.92 -0.56,-0.35 -1.14,-0.95 -1.74,-1.8 -0.6,-0.85 -0.9,-2.09 -0.9,-3.71 0,-0.35 0.03,-0.84 0.1,-1.48 0.07,-0.63 0.23,-1.37 0.49,-2.2 0.13,-0.39 0.35,-0.93 0.66,-1.61 0.31,-0.68 0.7,-1.41 1.18,-2.2 0.48,-0.79 1.07,-1.62 1.77,-2.49 0.7,-0.87 1.53,-1.73 2.49,-2.56 0.74,-0.66 1.56,-1.27 2.46,-1.84 0.9,-0.57 1.85,-1.08 2.85,-1.54 1.01,-0.46 2.03,-0.82 3.08,-1.08 1.05,-0.26 2.08,-0.39 3.08,-0.39 1.4,0 2.75,0.24 4.07,0.72 1.31,0.48 2.43,1.2 3.35,2.16 0.48,0.52 1.04,1.39 1.67,2.59 0.63,1.2 0.95,2.77 0.95,4.69 0,1.4 -0.21,2.77 -0.62,4.1 -0.42,1.33 -0.97,2.6 -1.67,3.8 -0.7,1.2 -1.51,2.35 -2.43,3.44 -0.92,1.09 -1.88,2.06 -2.89,2.89 -1.18,1.05 -2.49,2 -3.94,2.85 -1.44,0.85 -2.95,1.59 -4.53,2.2 -1.57,0.61 -3.18,1.08 -4.82,1.41 -1.64,0.33 -3.25,0.49 -4.82,0.49 -0.44,0 -1.03,-0.02 -1.77,-0.07 -0.74,-0.04 -1.59,-0.16 -2.53,-0.36 -0.94,-0.2 -1.95,-0.5 -3.02,-0.92 -1.07,-0.42 -2.15,-0.97 -3.25,-1.67 -0.52,-0.31 -1.13,-0.74 -1.8,-1.31 -0.68,-0.57 -1.33,-1.29 -1.97,-2.16 -0.63,-0.87 -1.17,-1.91 -1.61,-3.12 -0.44,-1.2 -0.66,-2.63 -0.66,-4.3 0,-0.92 0.17,-2.19 0.52,-3.8 0.35,-1.62 1.16,-3.41 2.43,-5.38 1.18,-1.75 2.56,-3.27 4.13,-4.56 1.57,-1.29 3.28,-2.4 5.12,-3.35 1.84,-0.94 3.74,-1.72 5.71,-2.33 1.97,-0.61 3.94,-1.16 5.9,-1.64 -1.66,-0.48 -3.26,-1.12 -4.79,-1.91 -1.53,-0.79 -2.75,-1.99 -3.67,-3.61 -0.17,-0.27 -0.4,-0.78 -0.69,-1.52 -0.28,-0.74 -0.43,-1.55 -0.43,-2.43 0,-0.23 0.02,-0.5 0.07,-0.83 0.04,-0.33 0.13,-0.73 0.26,-1.21 0.26,-0.87 0.79,-1.93 1.57,-3.16 0.79,-1.22 2.06,-2.45 3.8,-3.68 0.61,-0.44 1.4,-0.92 2.36,-1.44 0.96,-0.52 2.1,-1.02 3.41,-1.49 1.31,-0.46 2.79,-0.84 4.43,-1.15 1.64,-0.31 3.44,-0.46 5.41,-0.46 0.26,0 0.72,0.01 1.38,0.03 0.66,0.02 1.41,0.1 2.26,0.23 0.85,0.13 1.76,0.33 2.72,0.59 0.96,0.26 1.9,0.64 2.82,1.13 0.92,0.48 1.66,1.03 2.23,1.64 0.57,0.62 1.02,1.22 1.34,1.81 0.33,0.59 0.55,1.18 0.66,1.75 0.11,0.57 0.16,1.07 0.16,1.52 0,1.57 -0.51,2.94 -1.54,4.08 -1.03,1.15 -2.37,1.72 -4.03,1.72 -0.74,0 -1.37,-0.13 -1.87,-0.39 -0.5,-0.26 -0.91,-0.57 -1.21,-0.92 -0.31,-0.35 -0.51,-0.72 -0.62,-1.11 -0.11,-0.39 -0.16,-0.72 -0.16,-0.98 0,-0.96 0.32,-1.71 0.95,-2.23 0.63,-0.52 1.39,-0.79 2.26,-0.79 0.26,0 0.48,0.03 0.66,0.1 0.17,0.07 0.37,0.19 0.59,0.36l0.26 0.2c0.35,0.26 0.63,0.39 0.85,0.39 0.31,-0.04 0.59,-0.23 0.85,-0.56 0.26,-0.33 0.39,-0.8 0.39,-1.41 0,-0.26 -0.07,-0.62 -0.2,-1.08 -0.13,-0.46 -0.39,-0.93 -0.79,-1.41 -0.92,-1.18 -2.13,-2 -3.64,-2.46 -1.51,-0.46 -2.94,-0.69 -4.3,-0.69 -0.61,0 -1.36,0.05 -2.23,0.16 -0.87,0.11 -1.83,0.33 -2.85,0.66 -1.03,0.33 -2.11,0.83 -3.25,1.51 -1.14,0.68 -2.25,1.56 -3.35,2.66 -1.84,1.88 -3.09,3.71 -3.77,5.48 -0.68,1.77 -1.02,3.18 -1.02,4.23 0,0.31 0.04,0.75 0.13,1.34 0.09,0.59 0.33,1.24 0.72,1.93 0.7,1.22 1.54,1.97 2.53,2.23 0.98,0.26 2.11,0.37 3.38,0.33 1.14,-0.22 2.25,-0.44 3.34,-0.66 1.09,-0.22 2.25,-0.33 3.48,-0.33 0.48,0 1.04,0.03 1.67,0.1 0.63,0.07 1.15,0.3 1.54,0.69 0.09,0.09 0.16,0.2 0.23,0.33 0.07,0.13 0.1,0.24 0.1,0.33 -0.04,0.35 -0.22,0.66 -0.52,0.92 -0.31,0.26 -0.59,0.44 -0.85,0.52 -0.35,0.09 -0.77,0.17 -1.25,0.26 -0.48,0.09 -1.09,0.13 -1.84,0.13 -1.14,0 -2.25,-0.06 -3.35,-0.16 -1.09,-0.11 -2.19,-0.23 -3.28,-0.36 -0.31,0.04 -0.73,0.08 -1.28,0.1 -0.55,0.02 -1.17,0.14 -1.87,0.36 -1.57,0.39 -3.03,0.97 -4.36,1.74 -1.33,0.77 -2.58,1.66 -3.74,2.69 -1.16,1.03 -2.2,2.16 -3.12,3.41 -0.92,1.25 -1.73,2.53 -2.43,3.84 -1.31,2.45 -2.22,4.73 -2.72,6.85 -0.5,2.12 -0.75,3.68 -0.75,4.69 0.04,1.18 0.26,2.34 0.66,3.48 0.39,1.14 1.03,2.1 1.9,2.89 0.52,0.48 1.34,0.97 2.46,1.48 1.12,0.5 2.61,0.75 4.49,0.75 1.57,0 3,-0.2 4.26,-0.59 1.27,-0.39 2.37,-0.86 3.31,-1.41 0.94,-0.55 1.74,-1.1 2.39,-1.67 0.66,-0.57 1.18,-1.05 1.57,-1.44 1.05,-1.09 2.03,-2.32 2.95,-3.67 0.92,-1.36 1.73,-2.66 2.43,-3.9 0.7,-1.25 1.27,-2.33 1.71,-3.25 0.44,-0.92 0.72,-1.51 0.85,-1.77 0.61,-1.4 1.04,-2.5 1.28,-3.31 0.24,-0.81 0.36,-1.59 0.36,-2.33 0,-0.61 -0.08,-1.15 -0.23,-1.61 -0.15,-0.46 -0.3,-0.8 -0.43,-1.02 -0.48,-0.87 -1.09,-1.48 -1.85,-1.8 -0.74,-0.33 -1.62,-0.49 -2.62,-0.49 -0.49,0 -1.11,0.08 -1.88,0.23 -0.77,0.15 -1.66,0.47 -2.67,0.95 -0.74,0.35 -1.73,0.98 -2.96,1.9 -1.22,0.92 -2.43,2.21 -3.62,3.87 -0.13,0.17 -0.4,0.58 -0.82,1.21 -0.42,0.63 -0.85,1.42 -1.31,2.36 -0.47,0.94 -0.87,1.98 -1.22,3.12 -0.35,1.14 -0.52,2.27 -0.52,3.41 0,1.53 0.31,2.6 0.92,3.21 0.61,0.61 1.25,1.03 1.9,1.25l0.52 0.13zm143.25 -47.55c0.96,-0.09 1.79,-0.22 2.49,-0.39 0.7,-0.17 1.46,-0.5 2.3,-0.98 0.09,-0.04 0.31,-0.19 0.66,-0.43 0.35,-0.24 0.66,-0.47 0.92,-0.69 0.61,-0.52 1.05,-1.08 1.31,-1.67 0.26,-0.59 0.39,-1.06 0.39,-1.41 0,-0.22 -0.08,-0.44 -0.23,-0.66 -0.15,-0.22 -0.49,-0.31 -1.02,-0.26 -0.87,0 -1.97,0.66 -3.28,1.97 -0.96,0.92 -1.73,1.8 -2.3,2.66 -0.57,0.85 -0.98,1.48 -1.25,1.87zm-5.97 9.43c-1.01,1.74 -1.96,3.51 -2.85,5.3 -0.9,1.79 -1.78,3.61 -2.66,5.44l-0.66 1.31c-1.49,3.05 -2.98,6.1 -4.49,9.14 -1.51,3.04 -3.07,6.06 -4.69,9.07 -2.36,4.37 -4.46,7.97 -6.3,10.78 -1.84,2.82 -3.43,5.04 -4.79,6.66 -0.57,0.74 -1.17,1.45 -1.8,2.13 -0.63,0.68 -1.28,1.32 -1.94,1.94 -2.89,2.61 -5.95,4.48 -9.18,5.6 -3.24,1.12 -6.8,1.67 -10.69,1.67 -0.61,0 -1.59,-0.03 -2.92,-0.1 -1.33,-0.07 -2.77,-0.34 -4.3,-0.82 -0.74,-0.22 -1.72,-0.6 -2.92,-1.15 -1.2,-0.55 -2.38,-1.36 -3.54,-2.43 -1.16,-1.07 -2.16,-2.43 -3.02,-4.07 -0.85,-1.64 -1.28,-3.64 -1.28,-6 0,-0.79 0.08,-1.68 0.23,-2.69 0.15,-1.01 0.46,-2.1 0.92,-3.28 0.46,-1.18 1.1,-2.42 1.94,-3.71 0.83,-1.29 1.95,-2.57 3.35,-3.84 0.66,-0.57 1.56,-1.29 2.72,-2.16 1.16,-0.87 2.57,-1.72 4.23,-2.53 1.66,-0.81 3.54,-1.5 5.64,-2.07 2.1,-0.57 4.39,-0.85 6.89,-0.85 1.49,0 2.79,0.12 3.9,0.36 1.12,0.24 2.09,0.56 2.92,0.95 0.83,0.39 1.53,0.85 2.1,1.38 0.57,0.52 1.07,1.07 1.51,1.64 0.26,0.35 0.63,0.99 1.11,1.94 0.48,0.94 0.72,2.04 0.72,3.31 0,0.61 -0.11,1.42 -0.33,2.43 -0.22,1.01 -0.77,2.14 -1.64,3.41 -0.92,1.4 -2.02,2.63 -3.31,3.71 -1.29,1.07 -2.68,1.96 -4.17,2.66 -1.49,0.7 -3.04,1.22 -4.66,1.57 -1.62,0.35 -3.24,0.52 -4.85,0.52 -0.87,0 -1.62,-0.04 -2.23,-0.12 -0.61,-0.09 -1.09,-0.17 -1.44,-0.25 -0.31,-0.09 -0.79,-0.26 -1.44,-0.51 -0.66,-0.25 -1.32,-0.63 -2,-1.16 -0.68,-0.51 -1.28,-1.19 -1.8,-2.02 -0.52,-0.83 -0.79,-1.88 -0.79,-3.15 0,-0.35 0.09,-0.93 0.26,-1.74 0.17,-0.81 0.63,-1.63 1.38,-2.46 0.57,-0.7 1.07,-1.05 1.51,-1.05 0.39,0 0.59,0.17 0.59,0.52 0,0.26 -0.17,0.55 -0.52,0.85l-0.46 0.52c-0.35,0.48 -0.66,0.95 -0.92,1.41 -0.26,0.46 -0.39,1.02 -0.39,1.67 0,1.01 0.26,1.9 0.79,2.69 0.48,0.74 1.3,1.48 2.46,2.2 1.16,0.72 2.79,1.08 4.89,1.08 0.39,0 0.89,-0.02 1.48,-0.07 0.59,-0.04 1.25,-0.16 1.97,-0.36 0.72,-0.2 1.5,-0.47 2.33,-0.82 0.83,-0.36 1.66,-0.84 2.49,-1.45 1.14,-0.79 2.06,-1.63 2.75,-2.54 0.7,-0.9 1.25,-1.77 1.64,-2.62 0.39,-0.86 0.66,-1.67 0.79,-2.44 0.13,-0.77 0.2,-1.41 0.2,-1.95 0,-0.31 -0.05,-0.83 -0.16,-1.57 -0.11,-0.74 -0.34,-1.53 -0.69,-2.37 -0.83,-1.71 -1.97,-2.89 -3.41,-3.52 -1.44,-0.63 -3.08,-0.95 -4.92,-0.95 -1.75,0 -3.25,0.19 -4.49,0.56 -1.25,0.37 -2.15,0.69 -2.72,0.95 -1.66,0.74 -3.16,1.71 -4.49,2.89 -1.33,1.18 -2.48,2.53 -3.44,4.03 -0.96,1.51 -1.71,3.13 -2.23,4.85 -0.52,1.73 -0.79,3.49 -0.79,5.28 0,1.4 0.14,2.63 0.43,3.71 0.28,1.07 0.63,2.01 1.05,2.82 0.42,0.81 0.86,1.49 1.34,2.03 0.48,0.55 0.94,1.02 1.38,1.41 0.44,0.35 0.99,0.74 1.67,1.18 0.68,0.44 1.48,0.85 2.39,1.25 0.92,0.39 1.97,0.72 3.15,0.98 1.18,0.26 2.47,0.39 3.87,0.39 3.63,0 6.99,-0.85 10.07,-2.56 3.08,-1.71 5.7,-3.98 7.84,-6.82 0.7,-0.92 1.43,-2.04 2.2,-3.38 0.77,-1.33 1.46,-2.9 2.1,-4.69 0.63,-1.79 1.16,-3.82 1.57,-6.07 0.42,-2.25 0.62,-4.76 0.62,-7.51 0,-1.09 -0.08,-2.65 -0.23,-4.66 -0.15,-2.01 -0.54,-4.26 -1.15,-6.76 -0.61,-2.49 -1.54,-5.11 -2.79,-7.84 -1.25,-2.73 -2.96,-5.39 -5.15,-7.97 -1.4,-1.62 -2.78,-2.98 -4.13,-4.1 -1.36,-1.12 -2.68,-2.01 -3.97,-2.69 -1.29,-0.68 -2.5,-1.17 -3.64,-1.48 -1.14,-0.31 -2.16,-0.46 -3.08,-0.46 -0.39,0 -0.93,0.04 -1.61,0.13 -0.68,0.09 -1.4,0.29 -2.16,0.62 -0.77,0.33 -1.52,0.81 -2.26,1.44 -0.74,0.63 -1.36,1.5 -1.84,2.59 -0.31,0.74 -0.5,1.44 -0.59,2.1 -0.09,0.66 -0.13,1.12 -0.13,1.38 0,0.52 0.09,1.24 0.26,2.13 0.17,0.9 0.57,1.91 1.18,3.05 0.7,1.27 1.6,2.44 2.69,3.51 1.09,1.07 2.32,2 3.67,2.79 1.36,0.79 2.78,1.4 4.26,1.84 1.49,0.44 2.95,0.66 4.39,0.66 1.01,0 2.15,-0.16 3.44,-0.49 1.29,-0.33 2.33,-0.86 3.12,-1.61 0.17,-0.22 0.32,-0.39 0.43,-0.52 0.11,-0.13 0.27,-0.39 0.49,-0.79l0.26 -0.66c0.22,-0.39 0.44,-0.59 0.66,-0.59 0.31,0 0.48,0.12 0.52,0.36 0.04,0.24 0.07,0.38 0.07,0.43 0,0.35 -0.19,0.92 -0.56,1.71 -0.37,0.79 -0.93,1.55 -1.67,2.3 -0.39,0.35 -0.89,0.73 -1.48,1.15 -0.59,0.42 -1.3,0.81 -2.13,1.18 -0.83,0.37 -1.78,0.68 -2.85,0.92 -1.07,0.24 -2.24,0.36 -3.51,0.36 -2.01,0 -4.07,-0.35 -6.17,-1.05 -2.1,-0.7 -3.91,-1.73 -5.44,-3.07 -1.44,-1.27 -2.58,-2.85 -3.41,-4.74 -0.83,-1.9 -1.25,-3.82 -1.25,-5.73 0,-1.53 0.2,-2.84 0.59,-3.94 0.39,-1.09 0.72,-1.89 0.98,-2.42 0.39,-0.7 0.96,-1.52 1.71,-2.46 0.74,-0.94 1.68,-1.81 2.82,-2.61 1.14,-0.81 2.51,-1.5 4.13,-2.07 1.62,-0.57 3.5,-0.85 5.64,-0.85 2.19,0 4.29,0.34 6.3,1.02 2.01,0.68 3.88,1.62 5.61,2.81 1.73,1.2 3.3,2.61 4.72,4.23 1.42,1.61 2.63,3.36 3.64,5.24 0.44,0.79 0.89,1.74 1.34,2.88 0.46,1.14 0.89,2.44 1.28,3.9 0.39,1.45 0.72,3.1 0.98,4.94 0.26,1.83 0.39,3.84 0.39,6.02 0,1.92 -0.1,3.76 -0.3,5.51 -0.2,1.75 -0.48,3.45 -0.85,5.12 -0.37,1.66 -0.81,3.32 -1.31,4.98 -0.5,1.66 -1.08,3.39 -1.74,5.18 0.52,-0.57 0.97,-1.12 1.34,-1.64 0.37,-0.52 0.75,-1.1 1.15,-1.74 0.39,-0.63 0.81,-1.38 1.25,-2.23 0.44,-0.85 0.96,-1.91 1.57,-3.18 0.44,-0.92 0.86,-1.85 1.28,-2.79 0.42,-0.94 0.84,-1.87 1.28,-2.79l2.56 -5.71c0.96,-1.97 1.92,-3.94 2.89,-5.89 0.96,-1.97 1.97,-3.94 3.02,-5.89 1.01,-1.88 2.04,-3.73 3.12,-5.53 1.07,-1.82 2.2,-3.6 3.38,-5.33l-8.26 -0.66c-0.66,-0.04 -1.43,-0.09 -2.33,-0.13 -0.9,-0.04 -1.83,-0.04 -2.79,0 -0.96,0.04 -1.89,0.15 -2.79,0.33 -0.9,0.17 -1.63,0.48 -2.2,0.91 -0.35,0.26 -0.66,0.57 -0.92,0.92 -0.26,0.35 -0.57,0.94 -0.92,1.77l-0.26 0.92c-0.13,0.44 -0.33,0.66 -0.59,0.66 -0.22,0 -0.39,-0.09 -0.52,-0.26 -0.13,-0.17 -0.2,-0.37 -0.2,-0.59 0.04,-0.13 0.12,-0.42 0.23,-0.85 0.11,-0.44 0.16,-0.7 0.16,-0.79 0.39,-1.31 0.9,-2.43 1.51,-3.37 0.61,-0.94 1.26,-1.73 1.94,-2.36 0.68,-0.63 1.36,-1.14 2.03,-1.51 0.68,-0.37 1.28,-0.63 1.8,-0.81 0.52,-0.22 1.05,-0.39 1.57,-0.52 0.52,-0.13 1.1,-0.23 1.74,-0.29 0.63,-0.07 1.34,-0.09 2.13,-0.07 0.79,0.02 1.75,0.06 2.89,0.1l9.38 0.66c1.66,-2.36 3.28,-4.3 4.85,-5.79 1.57,-1.51 3.02,-2.26 4.33,-2.26 0.96,0.04 1.66,0.35 2.1,0.92 0.44,0.57 0.66,1.29 0.66,2.16 0,0.22 -0.02,0.5 -0.07,0.85 -0.04,0.35 -0.17,0.77 -0.39,1.25 -0.22,0.52 -0.57,1.16 -1.05,1.92 -0.48,0.77 -1.12,1.54 -1.9,2.33 -0.79,0.79 -1.74,1.54 -2.85,2.26 -1.12,0.72 -2.42,1.32 -3.9,1.8 -0.66,0.22 -1.24,0.38 -1.74,0.49 -0.5,0.11 -1.08,0.21 -1.74,0.3l-1.97 3.15z"/>
    <path class="fil0" d="M78.58 98.47c0.31,-0.57 0.72,-1.39 1.25,-2.46 0.52,-1.07 1.04,-2.22 1.54,-3.44 0.5,-1.22 0.94,-2.41 1.31,-3.54 0.37,-1.14 0.56,-2.03 0.56,-2.69 0,-0.48 -0.14,-0.91 -0.43,-1.28 -0.28,-0.37 -0.67,-0.56 -1.15,-0.56 -0.35,0.04 -0.71,0.17 -1.08,0.39 -0.37,0.22 -0.8,0.59 -1.28,1.12 -0.7,0.79 -1.64,2.21 -2.82,4.26 -1.18,2.06 -2.43,4.39 -3.74,7.02 -0.66,1.4 -1.3,2.78 -1.94,4.13 -0.63,1.36 -1.24,2.73 -1.8,4.13 -0.04,0.09 -0.19,0.46 -0.43,1.11 -0.24,0.66 -0.36,1.29 -0.36,1.9 0,0.57 0.15,0.96 0.46,1.18 0.31,0.22 0.57,0.33 0.79,0.33 0.35,-0.04 0.75,-0.23 1.21,-0.56 0.46,-0.33 0.93,-0.75 1.41,-1.28 0.48,-0.52 1.03,-1.21 1.64,-2.07 0.61,-0.85 1.22,-1.74 1.84,-2.66 0.61,-0.92 1.18,-1.83 1.71,-2.72 0.52,-0.9 0.96,-1.67 1.31,-2.33zm0.46 1.77c-0.48,0.79 -0.98,1.62 -1.51,2.49 -0.52,0.87 -1.07,1.74 -1.64,2.59 -0.57,0.85 -1.17,1.68 -1.8,2.49 -0.63,0.81 -1.3,1.54 -2,2.2 -0.13,0.13 -0.46,0.39 -0.98,0.79 -0.52,0.39 -1.16,0.59 -1.9,0.59 -0.22,0 -0.47,-0.03 -0.75,-0.1 -0.28,-0.07 -0.6,-0.21 -0.95,-0.43 -0.74,-0.44 -1.3,-1.03 -1.67,-1.77 -0.37,-0.74 -0.65,-1.48 -0.82,-2.2 -0.17,-0.72 -0.27,-1.37 -0.29,-1.94 -0.02,-0.57 -0.03,-0.92 -0.03,-1.05 0,-1.4 0.19,-2.82 0.56,-4.26 0.37,-1.44 0.87,-2.85 1.51,-4.23 0.63,-1.38 1.38,-2.68 2.23,-3.9 0.85,-1.22 1.76,-2.34 2.72,-3.34 0.52,-0.57 1.15,-1.17 1.87,-1.8 0.72,-0.63 1.49,-1.21 2.3,-1.74 0.81,-0.52 1.65,-0.96 2.53,-1.31 0.87,-0.35 1.73,-0.52 2.56,-0.52 0.7,0 1.27,0.1 1.71,0.29 0.44,0.2 0.78,0.45 1.02,0.75 0.24,0.31 0.4,0.63 0.49,0.98 0.09,0.35 0.17,0.66 0.26,0.92l1.11 -2.56 5.58 0 -5.31 12.99c-0.48,1.27 -0.96,2.5 -1.44,3.71 -0.48,1.2 -0.96,2.42 -1.44,3.64 -0.48,1.22 -0.85,2.27 -1.11,3.15 -0.26,0.87 -0.39,1.57 -0.39,2.1 0,0.09 0.04,0.35 0.13,0.79 0.09,0.44 0.39,0.66 0.92,0.66 0.39,0 0.84,-0.24 1.34,-0.72 0.5,-0.48 0.99,-1.12 1.48,-1.9 0.39,-0.61 0.71,-1.16 0.95,-1.64 0.24,-0.48 0.51,-1.07 0.82,-1.77l0.26 -0.85c0.09,-0.31 0.22,-0.61 0.39,-0.92 0.17,-0.31 0.44,-0.44 0.79,-0.39 0.17,0 0.31,0.09 0.39,0.26 0.09,0.17 0.13,0.33 0.13,0.46 0,0.26 -0.11,0.65 -0.33,1.15 -0.22,0.5 -0.46,1.02 -0.72,1.54 -0.26,0.52 -0.51,1.03 -0.75,1.51 -0.24,0.48 -0.43,0.81 -0.56,0.98 -0.79,1.27 -1.55,2.16 -2.3,2.69 -0.74,0.52 -1.49,0.79 -2.23,0.79 -0.44,0 -0.8,-0.07 -1.08,-0.2 -0.28,-0.13 -0.49,-0.24 -0.62,-0.33 -0.48,-0.35 -0.95,-0.93 -1.41,-1.74 -0.46,-0.81 -0.69,-1.89 -0.69,-3.25 0,-0.66 0.08,-1.5 0.23,-2.53 0.15,-1.03 0.45,-2.26 0.89,-3.71l-0.39 0.59zm70.64 -1.77c0.31,-0.57 0.72,-1.39 1.25,-2.46 0.52,-1.07 1.04,-2.22 1.54,-3.44 0.5,-1.22 0.94,-2.41 1.31,-3.54 0.37,-1.14 0.56,-2.03 0.56,-2.69 0,-0.48 -0.14,-0.91 -0.43,-1.28 -0.28,-0.37 -0.67,-0.56 -1.15,-0.56 -0.35,0.04 -0.71,0.17 -1.08,0.39 -0.37,0.22 -0.8,0.59 -1.28,1.12 -0.7,0.79 -1.64,2.21 -2.82,4.26 -1.18,2.06 -2.43,4.39 -3.74,7.02 -0.66,1.4 -1.3,2.78 -1.94,4.13 -0.63,1.36 -1.24,2.73 -1.8,4.13 -0.04,0.09 -0.19,0.46 -0.43,1.11 -0.24,0.66 -0.36,1.29 -0.36,1.9 0,0.57 0.15,0.96 0.46,1.18 0.31,0.22 0.57,0.33 0.79,0.33 0.35,-0.04 0.75,-0.23 1.21,-0.56 0.46,-0.33 0.93,-0.75 1.41,-1.28 0.48,-0.52 1.03,-1.21 1.64,-2.07 0.61,-0.85 1.22,-1.74 1.84,-2.66 0.61,-0.92 1.18,-1.83 1.71,-2.72 0.52,-0.9 0.96,-1.67 1.31,-2.33zm0.46 1.77c-0.48,0.79 -0.98,1.62 -1.51,2.49 -0.52,0.87 -1.07,1.74 -1.64,2.59 -0.57,0.85 -1.17,1.68 -1.8,2.49 -0.63,0.81 -1.3,1.54 -2,2.2 -0.13,0.13 -0.46,0.39 -0.98,0.79 -0.52,0.39 -1.16,0.59 -1.9,0.59 -0.22,0 -0.47,-0.03 -0.75,-0.1 -0.28,-0.07 -0.6,-0.21 -0.95,-0.43 -0.74,-0.44 -1.3,-1.03 -1.67,-1.77 -0.37,-0.74 -0.64,-1.48 -0.82,-2.2 -0.17,-0.72 -0.27,-1.37 -0.29,-1.94 -0.02,-0.57 -0.03,-0.92 -0.03,-1.05 0,-1.4 0.19,-2.82 0.56,-4.26 0.37,-1.44 0.87,-2.85 1.51,-4.23 0.63,-1.38 1.38,-2.68 2.23,-3.9 0.85,-1.22 1.76,-2.34 2.72,-3.34 0.52,-0.57 1.15,-1.17 1.87,-1.8 0.72,-0.63 1.49,-1.21 2.3,-1.74 0.81,-0.52 1.65,-0.96 2.53,-1.31 0.87,-0.35 1.73,-0.52 2.56,-0.52 0.7,0 1.27,0.1 1.71,0.29 0.44,0.2 0.78,0.45 1.02,0.75 0.24,0.31 0.4,0.63 0.49,0.98 0.09,0.35 0.17,0.66 0.26,0.92l1.12 -2.56 5.58 0 -5.31 12.99c-0.48,1.27 -0.96,2.5 -1.44,3.71 -0.48,1.2 -0.96,2.42 -1.44,3.64 -0.48,1.22 -0.85,2.27 -1.12,3.15 -0.26,0.87 -0.39,1.57 -0.39,2.1 0,0.09 0.04,0.35 0.13,0.79 0.09,0.44 0.39,0.66 0.92,0.66 0.39,0 0.84,-0.24 1.34,-0.72 0.5,-0.48 1,-1.12 1.48,-1.9 0.39,-0.61 0.71,-1.16 0.95,-1.64 0.24,-0.48 0.51,-1.07 0.82,-1.77l0.26 -0.85c0.09,-0.31 0.22,-0.61 0.39,-0.92 0.17,-0.31 0.44,-0.44 0.79,-0.39 0.17,0 0.31,0.09 0.39,0.26 0.09,0.17 0.13,0.33 0.13,0.46 0,0.26 -0.11,0.65 -0.33,1.15 -0.22,0.5 -0.46,1.02 -0.72,1.54 -0.26,0.52 -0.51,1.03 -0.75,1.51 -0.24,0.48 -0.43,0.81 -0.56,0.98 -0.79,1.27 -1.55,2.16 -2.3,2.69 -0.74,0.52 -1.49,0.79 -2.23,0.79 -0.44,0 -0.8,-0.07 -1.08,-0.2 -0.28,-0.13 -0.49,-0.24 -0.62,-0.33 -0.48,-0.35 -0.95,-0.93 -1.41,-1.74 -0.46,-0.81 -0.69,-1.89 -0.69,-3.25 0,-0.66 0.08,-1.5 0.23,-2.53 0.15,-1.03 0.45,-2.26 0.89,-3.71l-0.39 0.59zm14.37 5.77c-0.09,-0.04 -0.19,-0.09 -0.3,-0.13 -0.11,-0.04 -0.23,-0.07 -0.36,-0.07 -0.22,0.04 -0.36,0.14 -0.43,0.3 -0.07,0.15 -0.1,0.34 -0.1,0.56 0.04,0.96 0.57,1.82 1.57,2.56 1.01,0.74 2.49,1.12 4.46,1.12 1.18,0 2.13,-0.19 2.85,-0.56 0.72,-0.37 1.3,-0.83 1.74,-1.38 0.44,-0.55 0.73,-1.12 0.89,-1.71 0.15,-0.59 0.23,-1.1 0.23,-1.54 0,-0.92 -0.23,-1.73 -0.69,-2.43 -0.46,-0.7 -1.3,-1.6 -2.53,-2.69l-2.56 -2.23c-0.92,-0.87 -1.66,-1.74 -2.23,-2.59 -0.57,-0.85 -0.85,-1.96 -0.85,-3.31 0,-0.35 0.04,-0.86 0.13,-1.54 0.09,-0.68 0.31,-1.41 0.66,-2.2 0.22,-0.48 0.57,-1.04 1.05,-1.67 0.48,-0.63 1.1,-1.25 1.87,-1.84 0.77,-0.59 1.68,-1.08 2.75,-1.48 1.07,-0.39 2.33,-0.59 3.77,-0.59 1.36,0 2.49,0.17 3.41,0.52 0.92,0.35 1.67,0.81 2.26,1.38 0.59,0.57 1.02,1.18 1.28,1.84 0.26,0.66 0.39,1.27 0.39,1.84 0,0.09 -0.01,0.25 -0.03,0.49 -0.02,0.24 -0.08,0.49 -0.16,0.75 -0.04,0.17 -0.14,0.42 -0.3,0.72 -0.15,0.31 -0.36,0.61 -0.62,0.92 -0.26,0.31 -0.61,0.57 -1.05,0.79 -0.44,0.22 -0.98,0.33 -1.64,0.33 -0.66,0 -1.21,-0.11 -1.67,-0.33 -0.46,-0.22 -0.83,-0.49 -1.11,-0.82 -0.28,-0.33 -0.48,-0.66 -0.59,-0.98 -0.11,-0.33 -0.16,-0.62 -0.16,-0.89 0.04,-0.61 0.26,-1.15 0.66,-1.61 0.39,-0.46 0.92,-0.69 1.57,-0.69 0.26,0 0.48,0.03 0.66,0.1 0.17,0.07 0.31,0.12 0.39,0.16 0.22,0.09 0.37,0.17 0.46,0.26 0.09,0.09 0.24,0.13 0.46,0.13 0.26,0 0.43,-0.1 0.49,-0.3 0.07,-0.2 0.1,-0.34 0.1,-0.43 0,-0.66 -0.4,-1.32 -1.21,-2 -0.81,-0.68 -1.98,-1.02 -3.51,-1.02 -1.4,0 -2.61,0.4 -3.64,1.21 -1.03,0.81 -1.54,1.98 -1.54,3.51 0,1.05 0.24,1.92 0.72,2.62 0.48,0.7 1.07,1.4 1.77,2.1l2.1 1.84c0.22,0.22 0.46,0.45 0.72,0.69 0.26,0.24 0.5,0.49 0.72,0.75 0.83,0.83 1.48,1.64 1.94,2.43 0.46,0.79 0.69,1.79 0.69,3.02 0,0.66 -0.15,1.53 -0.46,2.62 -0.31,1.09 -0.85,2.16 -1.64,3.21 -0.79,1.05 -1.86,1.95 -3.21,2.69 -1.36,0.74 -3.08,1.12 -5.18,1.12 -1.27,0 -2.6,-0.22 -4,-0.66 -1.4,-0.44 -2.51,-1.2 -3.35,-2.3 -0.22,-0.26 -0.48,-0.69 -0.79,-1.28 -0.31,-0.59 -0.46,-1.32 -0.46,-2.2 0,-0.17 0.02,-0.43 0.07,-0.75 0.04,-0.33 0.14,-0.69 0.29,-1.08 0.15,-0.39 0.37,-0.78 0.66,-1.15 0.28,-0.37 0.69,-0.69 1.21,-0.95 0.17,-0.09 0.43,-0.2 0.75,-0.33 0.33,-0.13 0.75,-0.2 1.28,-0.2 0.17,0 0.44,0.03 0.79,0.1 0.35,0.07 0.72,0.21 1.12,0.43 0.7,0.39 1.14,0.89 1.31,1.48 0.17,0.59 0.26,1.02 0.26,1.28 0,0.66 -0.16,1.17 -0.49,1.54 -0.33,0.37 -0.6,0.62 -0.82,0.75 -0.26,0.22 -0.49,0.34 -0.69,0.36 -0.2,0.02 -0.36,0.03 -0.49,0.03 -0.22,0 -0.4,-0.02 -0.56,-0.07 -0.15,-0.04 -0.4,-0.15 -0.75,-0.33l-0.33 -0.26z"/>
   </g>
   <path class="fil2 str0" d="M292.33 71.82c-0.64,0.5 -1.16,1.68 -2.41,3.73 -0.45,0.73 -1.99,3.03 -2.07,3.68 0.57,-0.42 4.78,-5.84 5.78,-7.19l0.7 -1.11c0.65,-0.5 0.08,-0.58 1,-0.82 1.2,1.26 1.26,6.41 1.19,8.06 -0.04,0.8 -0.33,2.63 -0.5,3.45 -0.23,1.13 -1.01,1.52 -2.37,2.2l-12.17 7c1.01,0.21 8.23,-0.6 10.17,-0.83l1.11 -0.02c0.37,0.08 0.17,-0 0.43,0.15 -0.1,1.38 -3.48,7.31 -4.29,8.48 -0.65,0.94 -1.37,0.63 -2.59,0.68l-5.82 0.21c-0.94,0.02 -2.12,0.01 -2.99,0.22 0.59,0.34 1.2,0.26 2.11,0.34l4.75 0.74c0.77,0.11 1.78,0.16 2.58,0.27 -0.06,0.95 -1.81,2.86 -2.49,3.63 -0.51,0.57 -0.95,1.1 -1.46,1.7l-7.04 6.44c-0.29,0.22 -0.16,0.12 -0.48,0.34 -1.77,1.19 -2.42,2.05 -4.76,3.38 -2.37,1.35 -1.3,1.65 -4.67,1.44l-5.36 -0.17c-1.7,-0.06 -3.45,-0.46 -5.4,-0.17 0.03,0.03 0.08,0.03 0.1,0.09l0.3 0.23c0.23,0.14 0.27,0.14 0.52,0.24l4.74 2.13c0.5,0.22 1.62,0.53 1.87,0.98 -0.17,0.63 -0.89,0.66 -2.22,1.4 -0.86,0.48 -1.8,0.88 -2.74,1.26 -1.07,0.43 -1.69,0.78 -2.74,1.22l-5.51 2.23c-0.98,0.35 -1.64,0.96 -2.87,0.59 -0.76,-0.23 -4.38,-1.76 -4.89,-1.73 -0.25,-0.53 -2.74,-1.42 -3.62,-1.31 0.28,0.56 0.66,0.81 1.03,1.15l1.11 1.09c0.53,0.44 1.98,1.72 2.27,2.32 -1.57,0.39 -1.12,-0.35 -2.37,-0.59 -2.44,-1.24 -4.14,-3.33 -5.6,-2.86 -2.64,0.85 -1.41,0.57 -2.25,1.01 -0.84,0.43 -10.15,2.63 -10.97,2.73 -0.11,-0.7 0.3,-0.91 0.46,-1.65 2.29,-0.56 11.53,-4.07 12.63,-4.98l3.61 -1.58c1.76,-0.94 9.34,-5.46 10.47,-6.46 0.41,-0.36 0.89,-0.62 1.34,-0.94 4.63,-3.25 8.78,-6.67 12.78,-10.6 4.03,-3.96 5.2,-5.5 8.62,-9.57 0.66,-0.79 3.59,-4.27 3.72,-5.29 -0.74,0.29 -1.46,1.38 -2.27,2.36 -3.69,4.51 -6.73,7.42 -10.89,11.35 -1.56,1.47 -3.29,2.63 -4.89,4.06 -1.94,1.75 -8.56,6.49 -10.54,7.69 -1.05,0.64 -10.78,6.33 -11.89,6.51l-0.12 -0.65c0.65,-0.87 0.45,-0.86 0.84,-1.77 0.69,-1.6 0.97,-2.84 1.47,-4.14l0.83 -1.96c0.5,0.56 -0.18,2.07 0.06,3.35 0.64,-0.47 3,-5.19 3.58,-6.12 0.79,-1.26 0.71,-1.62 1.53,-1.92 0.12,1.61 -0.89,3.1 -0.83,4.86 1.13,-1.04 4.57,-8.05 5.77,-9.67 0.06,-0.08 10.15,-10.05 12.54,-13.2 1.02,-1.34 1.76,-2.04 2.86,-3.57l1.02 -1.3c0.48,-0.5 -0.25,-0.13 0.71,-0.5 0.25,1.82 -0.44,5.06 -0.15,6.61 0.29,-0.22 1.66,-4.52 1.87,-5.22l3.69 -11.01c2.2,-4.41 7.71,-9.92 13.59,-10.73 5.38,-0.74 10.57,3.11 10.43,4.58 -0.22,0.53 -1.91,3.03 -1.95,3.44z"/>
  </g>
 </g>
</svg>
