<?xml version="1.0" encoding="UTF-8"?>
<!DOCTYPE svg PUBLIC "-//W3C//DTD SVG 1.1//EN" "http://www.w3.org/Graphics/SVG/1.1/DTD/svg11.dtd">
<!-- Creator: CorelDRAW 2018 (64-Bit) -->
<svg xmlns="http://www.w3.org/2000/svg" xml:space="preserve" width="11.3901mm" height="5.6397mm" version="1.1" style="shape-rendering:geometricPrecision; text-rendering:geometricPrecision; image-rendering:optimizeQuality; fill-rule:evenodd; clip-rule:evenodd"
viewBox="0 0 17.1 8.47"
 xmlns:xlink="http://www.w3.org/1999/xlink">
 <defs>
  <style type="text/css">
   <![CDATA[
    .str0 {stroke:#A2D9F7;stroke-width:0.11;stroke-miterlimit:22.9256}
    .fil0 {fill:none}
   ]]>
  </style>
 </defs>
 <g id="Layer_x0020_1">
  <metadata id="CorelCorpID_0Corel-Layer"/>
  <path class="fil0 str0" d="M0.71 2.13c0.15,0.04 0.32,0.2 0.69,0.45 0.13,0.09 0.56,0.37 0.62,0.47 -0.13,-0.03 -1.24,-0.64 -1.51,-0.79l-0.2 -0.14c-0.15,-0.04 -0.06,-0.09 -0.23,-0.06 -0.11,0.3 0.26,1.18 0.4,1.45 0.07,0.13 0.25,0.42 0.34,0.55 0.12,0.17 0.28,0.18 0.57,0.2l2.58 0.28c-0.16,0.11 -1.44,0.51 -1.79,0.62l-0.19 0.08c-0.06,0.04 -0.03,0.01 -0.06,0.06 0.12,0.23 1.13,0.98 1.36,1.12 0.18,0.11 0.28,0 0.49,-0.08l1 -0.4c0.16,-0.07 0.36,-0.15 0.52,-0.18 -0.07,0.1 -0.18,0.13 -0.33,0.21l-0.75 0.48c-0.12,0.07 -0.29,0.16 -0.42,0.24 0.08,0.16 0.52,0.35 0.69,0.43 0.13,0.06 0.24,0.12 0.37,0.18l1.67 0.57c0.07,0.02 0.04,0.01 0.11,0.02 0.39,0.07 0.56,0.17 1.06,0.22 0.5,0.05 0.34,0.18 0.9,-0.1l0.9 -0.43c0.28,-0.14 0.55,-0.33 0.9,-0.43 -0,0.01 -0.01,0.01 -0.01,0.02l-0.03 0.06c-0.03,0.04 -0.04,0.04 -0.07,0.08l-0.65 0.71c-0.07,0.07 -0.23,0.21 -0.24,0.3 0.08,0.09 0.2,0.05 0.48,0.07 0.18,0.02 0.37,0.02 0.56,0.01 0.21,-0.01 0.34,0.01 0.56,0l1.1 -0.03c0.19,-0.01 0.35,0.04 0.53,-0.11 0.11,-0.1 0.61,-0.62 0.7,-0.66 0,-0.11 0.36,-0.45 0.52,-0.49 -0.01,0.12 -0.05,0.19 -0.09,0.27l-0.11 0.27c-0.06,0.11 -0.21,0.44 -0.21,0.56 0.3,-0.05 0.16,-0.14 0.36,-0.28 0.32,-0.39 0.45,-0.87 0.74,-0.9 0.51,-0.05 0.28,-0.01 0.46,0 0.17,0.01 1.92,-0.31 2.06,-0.35 -0.03,-0.13 -0.12,-0.13 -0.2,-0.24 -0.43,0.08 -2.26,0.17 -2.51,0.09l-0.73 -0c-0.37,-0.03 -1.99,-0.23 -2.26,-0.32 -0.1,-0.03 -0.2,-0.04 -0.3,-0.06 -1.03,-0.21 -1.98,-0.48 -2.96,-0.85 -0.98,-0.37 -1.29,-0.55 -2.17,-0.98 -0.17,-0.08 -0.93,-0.46 -1.02,-0.62 0.15,-0.01 0.35,0.13 0.56,0.23 0.96,0.49 1.69,0.76 2.69,1.12 0.37,0.13 0.75,0.2 1.13,0.33 0.46,0.15 1.93,0.46 2.36,0.52 0.23,0.03 2.3,0.27 2.5,0.22l-0.03 -0.12c-0.17,-0.1 -0.14,-0.11 -0.27,-0.24 -0.24,-0.22 -0.37,-0.41 -0.56,-0.59l-0.29 -0.27c-0.04,0.13 0.18,0.34 0.24,0.57 -0.14,-0.03 -0.89,-0.66 -1.06,-0.77 -0.23,-0.15 -0.24,-0.22 -0.4,-0.21 0.1,0.28 0.38,0.46 0.5,0.76 -0.27,-0.09 -1.37,-1.03 -1.7,-1.21 -0.02,-0.01 -2.47,-0.95 -3.11,-1.31 -0.27,-0.15 -0.45,-0.22 -0.75,-0.39l-0.27 -0.14c-0.12,-0.05 0.03,-0.04 -0.16,-0.03 0.09,0.33 0.45,0.83 0.52,1.11 -0.07,-0.02 -0.62,-0.64 -0.71,-0.75l-1.44 -1.59c-0.7,-0.58 -2.04,-1.11 -3.1,-0.81 -0.97,0.27 -1.56,1.31 -1.43,1.55 0.08,0.07 0.55,0.37 0.59,0.44z"/>
 </g>
</svg>
