<?xml version="1.0" encoding="UTF-8"?>
<!DOCTYPE svg PUBLIC "-//W3C//DTD SVG 1.1//EN" "http://www.w3.org/Graphics/SVG/1.1/DTD/svg11.dtd">
<!-- Creator: CorelDRAW 2018 (64-Bit) -->
<svg xmlns="http://www.w3.org/2000/svg" xml:space="preserve" width="10.8595mm" height="23.9605mm" version="1.1" style="shape-rendering:geometricPrecision; text-rendering:geometricPrecision; image-rendering:optimizeQuality; fill-rule:evenodd; clip-rule:evenodd"
viewBox="0 0 12.15 26.81"
 xmlns:xlink="http://www.w3.org/1999/xlink">
 <defs>
  <style type="text/css">
   <![CDATA[
    .str0 {stroke:#A2D9F7;stroke-width:0.08;stroke-miterlimit:22.9256}
    .fil0 {fill:none}
   ]]>
  </style>
 </defs>
 <g id="Layer_x0020_1">
  <metadata id="CorelCorpID_0Corel-Layer"/>
  <g id="_2862495669696">
   <path class="fil0 str0" d="M2.51 14.83c0.05,0.03 0.1,0.11 0.22,0.24 0.04,0.05 0.18,0.19 0.2,0.24 -0.05,-0.02 -0.42,-0.36 -0.51,-0.44l-0.06 -0.07c-0.05,-0.03 -0.01,-0.04 -0.08,-0.05 -0.07,0.11 -0.01,0.48 0.02,0.59 0.01,0.06 0.06,0.18 0.08,0.24 0.03,0.08 0.09,0.1 0.2,0.13l0.96 0.35c-0.07,0.03 -0.6,0.06 -0.74,0.07l-0.08 0.01c-0.03,0.01 -0.01,0 -0.03,0.02 0.02,0.1 0.34,0.48 0.42,0.56 0.06,0.06 0.11,0.03 0.19,0.02l0.42 -0.06c0.07,-0.01 0.15,-0.03 0.22,-0.02 -0.04,0.03 -0.08,0.03 -0.15,0.05l-0.33 0.11c-0.05,0.02 -0.13,0.03 -0.18,0.05 0.02,0.07 0.17,0.18 0.23,0.23 0.04,0.03 0.08,0.07 0.13,0.1l0.59 0.37c0.02,0.01 0.01,0.01 0.04,0.02 0.14,0.06 0.2,0.12 0.38,0.18 0.19,0.07 0.11,0.1 0.35,0.04l0.38 -0.08c0.12,-0.03 0.24,-0.08 0.39,-0.08 -0,0 -0.01,0 -0.01,0.01l-0.02 0.02c-0.01,0.01 -0.02,0.01 -0.03,0.02l-0.31 0.21c-0.03,0.02 -0.11,0.06 -0.12,0.09 0.02,0.04 0.07,0.04 0.18,0.07 0.07,0.02 0.14,0.04 0.21,0.06 0.08,0.02 0.13,0.03 0.21,0.05l0.42 0.09c0.07,0.01 0.13,0.05 0.21,0.01 0.05,-0.03 0.29,-0.18 0.33,-0.19 0.01,-0.04 0.18,-0.14 0.24,-0.14 -0.01,0.04 -0.04,0.07 -0.06,0.1l-0.07 0.09c-0.03,0.04 -0.12,0.15 -0.13,0.2 0.12,0.01 0.08,-0.04 0.16,-0.07 0.16,-0.12 0.26,-0.29 0.37,-0.28 0.2,0.03 0.11,0.02 0.17,0.04 0.07,0.02 0.76,0.06 0.82,0.06 -0,-0.05 -0.03,-0.06 -0.05,-0.11 -0.17,-0.01 -0.88,-0.15 -0.97,-0.2l-0.28 -0.07c-0.14,-0.05 -0.74,-0.27 -0.83,-0.33 -0.03,-0.02 -0.07,-0.03 -0.11,-0.05 -0.37,-0.18 -0.72,-0.37 -1.05,-0.6 -0.34,-0.23 -0.44,-0.33 -0.74,-0.58 -0.06,-0.05 -0.31,-0.26 -0.33,-0.33 0.06,0.01 0.12,0.08 0.19,0.14 0.32,0.28 0.58,0.45 0.93,0.68 0.13,0.09 0.27,0.15 0.4,0.23 0.16,0.1 0.7,0.36 0.85,0.42 0.08,0.03 0.86,0.32 0.94,0.32l0 -0.05c-0.06,-0.05 -0.04,-0.06 -0.08,-0.12 -0.07,-0.11 -0.11,-0.19 -0.16,-0.28l-0.08 -0.13c-0.03,0.05 0.04,0.15 0.04,0.24 -0.05,-0.03 -0.28,-0.34 -0.33,-0.39 -0.07,-0.08 -0.07,-0.11 -0.13,-0.12 0.01,0.12 0.1,0.21 0.12,0.34 -0.09,-0.06 -0.43,-0.52 -0.54,-0.62 -0.01,-0.01 -0.86,-0.59 -1.07,-0.79 -0.09,-0.08 -0.15,-0.12 -0.25,-0.22l-0.09 -0.08c-0.04,-0.03 0.02,-0.01 -0.06,-0.03 0.01,0.13 0.1,0.36 0.09,0.47 -0.02,-0.01 -0.18,-0.3 -0.2,-0.35l-0.4 -0.74c-0.21,-0.29 -0.68,-0.62 -1.11,-0.6 -0.4,0.01 -0.72,0.36 -0.69,0.46 0.02,0.04 0.18,0.19 0.18,0.22z"/>
   <path class="fil0 str0" d="M5.97 2.26c-0.08,-0 -0.1,0.02 -0.17,0.03 0,-0.07 0.22,-0.43 0.26,-0.54l0.08 -0.19c0.04,-0.07 0.05,-0.1 0.08,-0.18 0.01,-0.04 0.02,-0.05 0.04,-0.09 0.03,-0.08 0.08,-0.24 0.13,-0.27 0.04,-0.03 0.13,-0.07 0.16,-0.11l-0.11 0.01c0.01,-0.05 0.13,-0.13 0.17,-0.17 0.04,-0.03 0.17,-0.14 0.18,-0.15 0.07,-0.12 -0.05,-0.58 0.11,-0.56 0.01,0.16 0.02,0.3 0.02,0.46 -0,0.11 -0.02,0.12 0.06,0.17 0.05,0.04 0.1,0.06 0.15,0.1 0.06,0.05 0.04,0.1 0.04,0.2 0.01,0.07 0.01,0.15 0.01,0.22 -0,0.16 -0.01,0.32 -0.02,0.48 -0.1,-0.01 -0.14,-0.2 -0.23,-0.24 -0.01,0.03 0.16,0.48 0.17,0.52 0.03,0.18 -0.18,0.67 -0.26,0.85 -0,0.01 -0.01,0.03 -0.02,0.04 -0.02,0.04 0,0.02 -0.04,0.04 -0.03,-0.02 -0.03,-0.03 -0.06,-0.13 -0.02,-0.08 -0.02,-0.1 -0.07,-0.12 -0.01,0.25 0.1,0.47 -0.05,0.5 -0.04,-0.04 -0.05,-0.15 -0.07,-0.2 -0.01,-0.03 -0.02,-0.08 -0.03,-0.11l-0.04 -0.1c-0.02,0.2 -0.01,0.35 -0.05,0.55 -0.02,0.11 -0.03,0.12 -0.1,0.19 -0.05,0.06 -0.11,0.1 -0.16,0.14 -0.12,0.09 -0.21,0.15 -0.38,0.2 -0.17,0.05 -0.37,-0 -0.46,-0.11 -0.19,-0.21 -0.18,-0.4 -0.08,-0.64 0.07,-0.17 0.23,-0.39 0.39,-0.5 0.05,-0.04 0.29,-0.21 0.32,-0.27zm0.82 -1.31c-0.03,0.03 -0.09,0.32 -0.11,0.37l-0.17 0.53c-0.02,0.05 -0.04,0.11 -0.07,0.16 -0.19,0.43 -0.17,0.43 -0.5,0.89 -0.14,0.2 -0.3,0.35 -0.42,0.51 0.18,-0.01 0.64,-0.63 0.76,-0.84 0.03,-0.05 0.06,-0.1 0.08,-0.15 0.12,-0.24 0.26,-0.57 0.32,-0.85 0.04,-0.19 0.1,-0.44 0.1,-0.62z"/>
   <path class="fil0 str0" d="M1.29 24.86c0.04,0.02 0.01,-0 0.05,0.03 0.05,0.05 0.19,0.24 0.23,0.24 0.02,-0.04 0.08,-0.24 0.09,-0.29 0.02,-0.12 0.07,-0.27 0.1,-0.39 0.01,-0.03 0.02,-0.04 0.03,-0.07l0.07 -0.32c0.01,-0.02 0.02,-0.05 0.03,-0.07 0.01,-0.02 0.02,-0.04 0.03,-0.07 0.01,0.2 -0.02,0.81 -0.02,1.05l-0.02 0.39c-0,0.1 0.02,0.11 0.19,0.23 0.03,0.02 0.13,0.1 0.15,0.13 0.02,0.01 0.58,0.4 0.76,0.45 0.15,0.04 0.62,0.09 0.77,0.09 0.61,0.01 0.99,-0.01 1.58,-0.14 0.16,-0.03 0.63,-0.19 0.76,-0.26 0.07,-0.04 0.43,-0.22 0.47,-0.22 -0.03,0.06 -0.2,0.15 -0.25,0.19 -0.14,0.1 -0.51,0.3 -0.68,0.38 -0.32,0.15 -0.92,0.34 -1.3,0.39 -0.1,0.01 -0.15,-0.01 -0.15,0.05 0.09,0.04 0.58,0.06 0.73,0.08 0.47,0.05 0.8,0.05 1.29,0.04l0.74 -0.06c0.16,-0.03 0.54,-0.05 0.71,-0.09 0.03,-0.01 0.06,-0.02 0.1,-0.03 0.41,-0.08 0.18,-0 0.5,-0.17 0.23,-0.11 0.45,-0.26 0.66,-0.41 0.03,-0.02 0.05,-0.04 0.08,-0.06 0.03,-0.02 0.05,-0.03 0.08,-0.05 0.26,-0.2 0.61,-0.54 0.81,-0.79 0.22,-0.28 0.24,-0.3 0.43,-0.62l0.16 -0.32c0.07,-0.12 0.05,-0.14 0.1,-0.24 0.01,-0.03 0.02,-0.06 0.05,-0.09 0,-0.04 0.12,-0.37 0.13,-0.42l0.1 -0.46c0.06,0.07 -0.05,0.63 -0.06,0.68 -0.01,0.08 -0.11,0.45 -0.15,0.51 -0.02,0.03 -0.03,0.06 -0.04,0.1 -0.04,0.09 -0.02,0.1 -0.07,0.17 -0.01,0.02 -0,0.01 -0.02,0.02 0,0.07 -0.34,0.63 -0.42,0.73 -0.03,0.04 -0.05,0.08 -0.08,0.12 -0.03,0.04 -0.05,0.06 -0.08,0.1 -0.13,0.17 -0.2,0.25 -0.36,0.41 -0.06,0.06 -0.37,0.35 -0.39,0.39 0.09,0 0.37,-0.14 0.45,-0.17 0.14,-0.05 0.49,-0.23 0.62,-0.32 0.22,-0.15 0.31,-0.21 0.54,-0.38 0.03,-0.02 0.06,-0.05 0.09,-0.07 0.03,-0.03 0.05,-0.04 0.08,-0.07 0.06,-0.05 0.1,-0.1 0.16,-0.15 0.15,-0.15 0.24,-0.24 0.38,-0.4 0.1,-0.12 0.11,-0.13 0.2,-0.26 0.04,-0.06 0.09,-0.12 0.12,-0.19 0.1,-0.17 0.13,-0.29 0.19,-0.42 0.1,-0.22 0.14,-0.54 0.13,-0.79 -0.01,-0.14 -0.08,-0.37 -0.14,-0.48 -0.13,-0.26 -0.31,-0.52 -0.58,-0.65 -0.28,-0.13 -0.44,-0.17 -0.76,-0.16 -0.24,0.01 -0.11,0.01 -0.27,0.04 -0.14,0.03 -0.34,0.1 -0.45,0.16l-0.06 0.33c-0.02,0.19 -0.17,0.89 -0.17,0.99 -0,0.06 -0.01,0.07 -0.02,0.13 -0.03,0.2 -0.05,0.09 -0.06,0.34l-0.07 0.45c-0.04,-0.01 -0.03,-0.04 -0.04,-0.09l-0.04 -0.37 0.01 -0.01c-0.02,-0.03 -0.02,-0.18 -0.03,-0.25 -0.01,-0.03 -0.1,-0.97 -0.12,-1.01 -0.03,-0.05 -0.03,0.27 -0.04,0.3 -0.02,0.09 -0.04,0.22 -0.03,0.32 0,0.09 -0.03,0.43 -0.05,0.5 -0.05,0.17 -0.07,0.97 -0.11,1.24 -0.01,0.07 -0,0.19 -0.04,0.22l-0.11 -0.47c-0.04,-0.19 -0.09,-0.5 -0.14,-0.64 -0.02,-0.04 -0.03,-0.13 -0.03,-0.18 -0.04,-0.09 -0.07,-0.33 -0.11,-0.46l-0.03 -0.12c-0.02,-0.04 -0.01,-0.01 -0.02,-0.03 -0.05,0.02 -0.06,0.09 -0.11,0.17 -0.02,0.03 -0.03,0.05 -0.05,0.08 -0.1,0.16 -0.12,0.16 -0.17,0.24 -0.03,0.05 -0.07,0.12 -0.1,0.16 -0.02,0.06 -0.19,0.28 -0.25,0.35 -0.06,0.08 -0.08,0.1 -0.2,0.07 -0.11,-0.04 -0.15,-0.01 -0.21,-0.04 -0.03,-0.02 -0.01,0 -0.02,-0.02l-0.01 0.01c-0.05,-0 -0.16,-0.05 -0.2,-0.06 -0.03,-0.01 -0.08,-0.01 -0.11,-0.02l-0.28 -0.1c-0.13,-0.05 -0.13,-0 -0.18,-0.06 -0.05,-0 -0.11,-0.03 -0.17,-0.05 -0.06,-0.02 -0.1,-0.03 -0.14,-0.05 -0.04,-0.01 -0.08,-0.03 -0.12,-0.04 -0.05,-0.02 -0.06,-0.02 -0.11,-0.03l-0.52 -0.24c-0.07,-0.04 -0,0.02 -0.05,-0.03 -0.05,0.01 -0.27,-0.12 -0.32,-0.15 -0.05,-0.03 -0.11,-0.04 -0.16,-0.08 -0.12,-0.08 -0.23,-0.08 -0.35,-0.12 -0.06,-0.02 -0.12,-0.04 -0.17,-0.06 -0.12,-0.04 -0.26,-0.07 -0.38,-0.09 -0.23,-0.05 -0.63,-0.1 -0.82,-0.14l-0.38 -0.08c-0.12,-0.02 -0.32,-0.03 -0.4,-0.08 0.01,-0.01 0,-0.01 0.03,-0.01l0.89 -0.1c0.04,-0.02 0.02,0 0.03,-0.03l-1.89 -0.27c0.01,0.05 0.03,0.06 0.06,0.09 0.02,0.03 0.04,0.05 0.06,0.09 0.1,0.14 0.31,0.34 0.42,0.47 0.02,0.01 0.28,0.23 0.31,0.3 0.01,0 0.19,0.16 0.2,0.17l0.43 0.33c0.03,0.03 0.04,0.04 0.08,0.07 0.04,0.03 0.06,0.04 0.09,0.06 0.04,0.03 0.05,0.03 0.09,0.05l0.35 0.25c0.12,0.09 0.33,0.16 0.37,0.23 0.04,0 0.18,0.09 0.22,0.11 0.04,0.02 0.06,0.05 0.1,0.07l0.23 0.12c0.04,0.02 0.07,0.03 0.12,0.06 0.08,0.05 0.41,0.17 0.48,0.2 0.08,0.04 0.16,0.06 0.25,0.1l0.26 0.08c0.13,0.05 0.17,0.04 0.24,0.08l0.02 0.01c-0.28,0.01 -0.77,-0.13 -1.07,-0.22 -0.05,-0.01 -0.1,-0.03 -0.15,-0.05l-0.53 -0.21 -0.48 -0.25c-0.06,-0.01 -0.05,-0.02 -0.1,-0.05 -0.1,-0.07 -0.21,-0.1 -0.34,-0.21l-0.17 -0.11c-0.07,-0.04 -0.06,-0.02 -0.08,-0.06 -0.02,-0 -0.03,-0.01 -0.05,-0.02 -0.01,-0.01 -0.01,-0 -0.02,-0.02 -0.02,-0.02 -0,-0 -0.01,-0.02 -0.04,-0.01 -0.09,-0.05 -0.12,-0.08 -0.04,-0.03 -0.07,-0.05 -0.11,-0.07 -0.21,-0.13 -0.42,-0.38 -0.59,-0.48 -0.01,-0.04 -0.11,-0.12 -0.14,-0.15 -0.29,-0.27 -0.45,-0.44 -0.72,-0.74 -0.18,-0.2 -0.71,-0.85 -0.84,-1.05 -0.1,-0.16 -0.18,-0.25 -0.29,-0.43 -0.02,-0.04 -0.04,-0.06 -0.06,-0.09 -0.05,-0.1 -0.03,-0.06 -0.08,-0.08 -0,0.01 -0.05,0.1 -0.05,0.1 -0.02,0.05 0,0.07 0.02,0.11 0.15,0.29 0.21,0.45 0.4,0.74 0.04,0.06 0.08,0.11 0.11,0.17 0.07,0.12 0.15,0.22 0.23,0.34 0.04,0.05 0.23,0.3 0.24,0.34 0.01,0.06 -0.09,0.39 -0.11,0.46l-0.03 0.11c-0.01,0.04 -0.02,0.08 -0.02,0.12 -0.02,0.13 -0.14,0.52 -0.16,0.62 -0.01,0.04 -0.01,0.02 0.01,0.05 0.05,-0.01 0.04,-0.01 0.08,-0.12l0.11 -0.27c0.02,-0.04 0.04,-0.1 0.05,-0.13 0.02,-0.02 0.03,-0.03 0.04,-0.06l0.08 -0.21c0.01,-0.03 0.02,-0.02 0.03,-0.06 0.01,-0.03 0.01,-0.03 0.03,-0.06 0.02,-0.04 0.04,-0.08 0.06,-0.11 0.01,0.18 -0.07,0.36 -0.08,0.55l-0.1 0.53c-0.02,0.08 -0.03,0.19 -0.05,0.28 -0.03,0.16 0.05,0.22 0.19,0.41 0.02,0.03 0.12,0.15 0.13,0.18z"/>
   <path class="fil0 str0" d="M8.86 8.64c-0.01,0.02 -0.01,0 -0.01,0.02 -0.01,0.03 -0.01,0.13 -0.03,0.14 -0.02,-0.01 -0.08,-0.07 -0.1,-0.09 -0.04,-0.04 -0.09,-0.08 -0.13,-0.12 -0.01,-0.01 -0.02,-0.01 -0.03,-0.02l-0.1 -0.1c-0.01,-0.01 -0.02,-0.01 -0.03,-0.02 -0.01,-0.01 -0.02,-0.01 -0.03,-0.02 0.04,0.07 0.19,0.29 0.25,0.38l0.1 0.14c0.02,0.04 0.02,0.05 -0.01,0.13 -0.01,0.02 -0.03,0.07 -0.03,0.08 -0.01,0.01 -0.12,0.28 -0.17,0.34 -0.05,0.05 -0.21,0.17 -0.26,0.21 -0.22,0.15 -0.36,0.22 -0.6,0.31 -0.07,0.02 -0.27,0.08 -0.34,0.08 -0.04,0 -0.21,0.02 -0.22,0.03 0.02,0.02 0.11,0.01 0.13,0.01 0.07,0.01 0.25,-0.01 0.34,-0.02 0.15,-0.02 0.41,-0.09 0.56,-0.16 0.04,-0.02 0.05,-0.04 0.07,-0.02 -0.02,0.03 -0.2,0.16 -0.25,0.19 -0.16,0.13 -0.28,0.2 -0.46,0.31l-0.28 0.15c-0.07,0.03 -0.21,0.11 -0.28,0.13 -0.01,0 -0.03,0.01 -0.04,0.01 -0.17,0.06 -0.07,0.04 -0.22,0.06 -0.11,0.01 -0.23,0.01 -0.33,0 -0.02,-0 -0.03,-0 -0.04,-0 -0.02,-0 -0.03,0 -0.04,0 -0.14,-0.01 -0.35,-0.05 -0.47,-0.1 -0.14,-0.05 -0.16,-0.05 -0.3,-0.13l-0.13 -0.08c-0.05,-0.03 -0.05,-0.04 -0.09,-0.06 -0.01,-0.01 -0.02,-0.02 -0.04,-0.02 -0.01,-0.01 -0.13,-0.11 -0.15,-0.12l-0.14 -0.14c-0.01,0.04 0.16,0.22 0.18,0.23 0.02,0.03 0.14,0.14 0.17,0.15 0.01,0.01 0.02,0.02 0.04,0.03 0.03,0.02 0.03,0.03 0.06,0.04 0.01,0 0,0 0.01,0 0.02,0.03 0.27,0.15 0.32,0.17 0.02,0.01 0.04,0.02 0.06,0.02 0.02,0.01 0.03,0.01 0.05,0.02 0.09,0.03 0.13,0.04 0.22,0.07 0.04,0.01 0.22,0.04 0.23,0.05 -0.03,0.02 -0.16,0.03 -0.2,0.04 -0.06,0.01 -0.23,0.03 -0.3,0.03 -0.11,-0 -0.16,-0 -0.28,-0.01 -0.02,-0 -0.03,-0.01 -0.05,-0.01 -0.02,-0 -0.03,-0 -0.05,-0.01 -0.03,-0 -0.06,-0.01 -0.09,-0.02 -0.09,-0.02 -0.14,-0.03 -0.23,-0.06 -0.06,-0.02 -0.07,-0.02 -0.13,-0.05 -0.03,-0.01 -0.06,-0.03 -0.09,-0.04 -0.07,-0.04 -0.11,-0.07 -0.17,-0.11 -0.09,-0.06 -0.18,-0.16 -0.23,-0.26 -0.03,-0.05 -0.05,-0.15 -0.06,-0.21 -0.01,-0.13 -0.01,-0.26 0.06,-0.37 0.07,-0.11 0.12,-0.16 0.24,-0.23 0.09,-0.05 0.04,-0.02 0.11,-0.05 0.06,-0.02 0.14,-0.04 0.2,-0.04l0.1 0.1c0.05,0.06 0.26,0.28 0.29,0.32 0.02,0.02 0.02,0.02 0.04,0.04 0.06,0.07 0.04,0.02 0.1,0.11l0.13 0.15c0.01,-0.01 0,-0.02 -0.01,-0.04l-0.07 -0.14 -0.01 -0c0,-0.01 -0.03,-0.07 -0.04,-0.1 -0,-0.01 -0.19,-0.38 -0.19,-0.4 -0,-0.02 0.07,0.09 0.08,0.1 0.03,0.03 0.06,0.07 0.08,0.11 0.02,0.03 0.11,0.15 0.13,0.17 0.06,0.05 0.25,0.34 0.32,0.43 0.02,0.02 0.04,0.07 0.07,0.07l-0.07 -0.19c-0.03,-0.08 -0.08,-0.2 -0.1,-0.26 -0,-0.02 -0.02,-0.05 -0.03,-0.07 -0.01,-0.04 -0.05,-0.14 -0.07,-0.19l-0.02 -0.05c-0,-0.02 -0,-0.01 0,-0.02 0.02,-0 0.04,0.02 0.08,0.04 0.01,0.01 0.02,0.01 0.04,0.02 0.07,0.04 0.08,0.03 0.12,0.05 0.02,0.01 0.05,0.03 0.07,0.04 0.02,0.02 0.13,0.06 0.17,0.07 0.04,0.01 0.05,0.02 0.09,-0.02 0.03,-0.04 0.05,-0.04 0.07,-0.06 0.01,-0.01 0,-0 0,-0.01l0.01 0c0.02,-0.01 0.05,-0.06 0.06,-0.07 0.01,-0.01 0.03,-0.02 0.03,-0.03l0.08 -0.1c0.04,-0.05 0.04,-0.03 0.05,-0.07 0.02,-0.01 0.03,-0.04 0.05,-0.06 0.02,-0.02 0.03,-0.04 0.04,-0.05 0.01,-0.01 0.02,-0.03 0.03,-0.04 0.01,-0.02 0.02,-0.02 0.03,-0.04l0.14 -0.21c0.02,-0.03 0,0 0.01,-0.02 0.02,-0.01 0.07,-0.1 0.08,-0.13 0.01,-0.02 0.03,-0.04 0.04,-0.07 0.03,-0.06 0.06,-0.08 0.1,-0.12 0.02,-0.02 0.03,-0.04 0.05,-0.06 0.04,-0.04 0.08,-0.09 0.12,-0.12 0.07,-0.07 0.21,-0.18 0.27,-0.24l0.12 -0.12c0.04,-0.03 0.11,-0.08 0.13,-0.12 -0.01,-0 -0,-0 -0.01,0l-0.34 0.17c-0.02,0 -0.01,0.01 -0.02,-0l0.62 -0.53c0.01,0.02 0,0.03 0,0.05 -0,0.02 -0,0.03 -0,0.05 -0,0.07 -0.03,0.19 -0.05,0.27 -0,0.01 -0.05,0.15 -0.04,0.18 -0,0 -0.03,0.1 -0.03,0.11l-0.08 0.22c-0.01,0.02 -0,0.02 -0.01,0.04 -0.01,0.02 -0.01,0.03 -0.02,0.04 -0.01,0.02 -0.01,0.02 -0.02,0.04l-0.07 0.17c-0.02,0.06 -0.08,0.14 -0.08,0.17 -0.01,0.01 -0.04,0.07 -0.05,0.09 -0.01,0.02 -0.01,0.03 -0.02,0.05l-0.06 0.09c-0.01,0.02 -0.02,0.03 -0.03,0.05 -0.02,0.04 -0.11,0.15 -0.13,0.18 -0.02,0.03 -0.04,0.06 -0.07,0.09l-0.07 0.09c-0.04,0.05 -0.05,0.05 -0.07,0.08l-0 0.01c0.1,-0.06 0.25,-0.22 0.34,-0.33 0.01,-0.02 0.03,-0.04 0.04,-0.05l0.14 -0.2 0.12 -0.2c0.02,-0.02 0.01,-0.02 0.02,-0.04 0.02,-0.05 0.05,-0.08 0.08,-0.15l0.04 -0.08c0.02,-0.03 0.02,-0.02 0.02,-0.04 0.01,-0.01 0.01,-0.01 0.01,-0.02 0,-0.01 0,-0 0,-0.01 0,-0.01 0,-0 -0,-0.01 0.01,-0.01 0.02,-0.04 0.02,-0.05 0.01,-0.02 0.01,-0.03 0.02,-0.05 0.05,-0.1 0.06,-0.23 0.11,-0.31 -0.01,-0.01 0.01,-0.07 0.02,-0.09 0.04,-0.17 0.06,-0.26 0.09,-0.43 0.02,-0.11 0.06,-0.47 0.06,-0.57 0,-0.08 0.01,-0.13 0.01,-0.22 -0,-0.02 0,-0.03 0,-0.05 -0,-0.05 -0,-0.03 0.01,-0.05 0,0 0.04,0.02 0.04,0.03 0.02,0.02 0.01,0.02 0.02,0.04 0.01,0.14 0.03,0.21 0.03,0.36 -0,0.03 -0,0.06 0,0.09 0,0.06 -0,0.11 -0.01,0.17 -0,0.03 -0.01,0.16 -0.01,0.18 0.01,0.02 0.12,0.12 0.14,0.14l0.04 0.03c0.01,0.01 0.02,0.03 0.04,0.04 0.04,0.04 0.17,0.16 0.2,0.19 0.01,0.01 0.01,0.01 0.01,0.02 -0.02,0.01 -0.02,0 -0.06,-0.03l-0.1 -0.07c-0.01,-0.01 -0.04,-0.03 -0.05,-0.04 -0.01,-0.01 -0.02,-0 -0.03,-0.01l-0.07 -0.06c-0.01,-0.01 -0.01,-0 -0.03,-0.01 -0.01,-0.01 -0.01,-0.01 -0.02,-0.02 -0.02,-0.01 -0.03,-0.02 -0.05,-0.03 0.04,0.07 0.11,0.12 0.16,0.18l0.16 0.17c0.02,0.02 0.05,0.06 0.08,0.09 0.05,0.05 0.03,0.09 0.02,0.19 -0,0.02 -0.01,0.08 -0.01,0.09z"/>
  </g>
 </g>
</svg>
